<svg width="153" height="41" viewBox="0 0 153 41" fill="none" xmlns="http://www.w3.org/2000/svg">
<g clip-path="url(#clip0_15_50)">
<path fill-rule="evenodd" clip-rule="evenodd" d="M17 39C26.3888 39 34 31.3888 34 22C34 12.6112 26.3888 5 17 5C7.61116 5 0 12.6112 0 22C0 31.3888 7.61116 39 17 39Z" fill="#FB5228"/>
<path fill-rule="evenodd" clip-rule="evenodd" d="M21.3621 20.7291C21.1671 20.9743 20.9373 21.1991 20.6727 21.4035C20.4081 21.6078 20.1504 21.744 19.8997 21.8121C19.649 21.8802 19.4471 21.8598 19.2939 21.7508C19.1407 21.6419 19.0641 21.383 19.0641 20.9743C19.4262 19.939 19.6281 18.8629 19.6699 17.7458C19.7117 16.6287 19.6351 15.6071 19.4401 14.6807C19.2451 13.7544 18.9596 13.0051 18.5836 12.433C18.2075 11.8608 17.7967 11.602 17.351 11.6565C16.961 11.711 16.5989 12.215 16.2646 13.1686C15.9304 14.1222 15.6448 15.2597 15.4081 16.5811C15.1713 17.9025 14.9833 19.2579 14.844 20.6474C14.7047 22.0369 14.6351 23.1812 14.6351 24.0803C14.6072 25.5788 14.7187 26.798 14.9694 27.738C15.2201 28.6779 15.5265 29.4067 15.8886 29.9244C16.2507 30.442 16.6128 30.7894 16.9749 30.9665C17.337 31.1436 17.6156 31.2185 17.8106 31.1913C18.5348 31.1368 19.2033 30.912 19.8162 30.517C20.429 30.1219 20.9791 29.6179 21.4666 29.0049C21.954 28.3918 22.3858 27.7175 22.7618 26.9819C23.1379 26.2463 23.4652 25.5243 23.7437 24.8159C24.0223 24.1075 24.2382 23.4468 24.3914 22.8338C24.5446 22.2208 24.663 21.7372 24.7465 21.383C24.8022 21.2468 25.0111 21.1855 25.3733 21.1991C25.7354 21.2127 25.9443 21.3558 26 21.6282C26 21.71 25.9304 22.0437 25.7911 22.6295C25.6518 23.2153 25.429 23.9236 25.1226 24.7546C24.8162 25.5856 24.4262 26.471 23.9526 27.411C23.4791 28.351 22.915 29.2228 22.2604 30.0265C21.6058 30.8303 20.8538 31.5114 20.0042 32.0699C19.1546 32.6285 18.2145 32.935 17.1838 32.9895C16.2646 33.0439 15.4708 32.8873 14.8022 32.5195C14.1337 32.1517 13.5766 31.6749 13.1309 31.0891C12.6852 30.5033 12.3162 29.8495 12.0237 29.1275C11.7312 28.4055 11.5153 27.7107 11.376 27.0432C11.2368 26.3757 11.1393 25.7899 11.0836 25.2859C11.0279 24.7819 11 24.4345 11 24.2438C11 23.8896 11.0139 23.3038 11.0418 22.4865C11.0696 21.6691 11.1462 20.7496 11.2716 19.7279C11.3969 18.7062 11.5919 17.6436 11.8565 16.5402C12.1212 15.4368 12.4902 14.4219 12.9638 13.4956C13.4373 12.5692 14.0153 11.7859 14.6978 11.1457C15.3802 10.5054 16.2228 10.1308 17.2256 10.0218C18.2563 9.91282 19.1407 10.2125 19.8788 10.9209C20.617 11.6293 21.1741 12.5352 21.5501 13.6386C21.9262 14.742 22.1003 15.9408 22.0724 17.2349C22.0446 18.5291 21.8078 19.6938 21.3621 20.7291Z" fill="white"/>
<path d="M52.2 18.27C55.458 18.27 57.402 16.2 57.978 14.04L55.998 13.392C55.566 14.832 54.342 16.2 52.2 16.2C50.022 16.2 47.97 14.616 47.97 11.628C47.97 8.532 50.076 7.002 52.182 7.002C54.324 7.002 55.512 8.244 55.89 9.792L57.924 9.108C57.348 6.876 55.422 4.968 52.182 4.968C48.87 4.968 45.756 7.47 45.756 11.628C45.756 15.786 48.762 18.27 52.2 18.27ZM64.9097 9.18C64.8197 9.162 64.6037 9.126 64.3517 9.126C63.1997 9.126 62.2277 9.684 61.8137 10.638V9.234H59.7797V18H61.8677V13.824C61.8677 12.186 62.6057 11.25 64.2257 11.25C64.4417 11.25 64.6757 11.268 64.9097 11.304V9.18ZM66.1303 15.624C66.1303 17.01 67.2643 18.27 69.1003 18.27C70.5223 18.27 71.3863 17.55 71.8003 16.884C71.8003 17.586 71.8723 17.946 71.8903 18H73.8343C73.8163 17.91 73.7263 17.388 73.7263 16.596V12.24C73.7263 10.494 72.7003 8.964 70.0003 8.964C67.8403 8.964 66.4723 10.314 66.3103 11.826L68.2183 12.258C68.3083 11.376 68.9203 10.674 70.0183 10.674C71.1703 10.674 71.6743 11.268 71.6743 12.006C71.6743 12.312 71.5303 12.564 71.0263 12.636L68.7763 12.978C67.2823 13.194 66.1303 14.058 66.1303 15.624ZM69.4963 16.632C68.6683 16.632 68.2183 16.092 68.2183 15.498C68.2183 14.778 68.7403 14.418 69.3883 14.31L71.6743 13.968V14.364C71.6743 16.074 70.6663 16.632 69.4963 16.632ZM84.0825 9.234H81.8865L79.6185 15.498L77.2965 9.234H74.9925L78.5565 18H80.6445L84.0825 9.234ZM86.8139 12.654C86.8859 11.718 87.6419 10.71 88.9559 10.71C90.3959 10.71 91.0799 11.628 91.1159 12.654H86.8139ZM91.3499 14.94C91.0619 15.804 90.4139 16.47 89.1539 16.47C87.8579 16.47 86.8139 15.516 86.7599 14.184H93.1679C93.1859 14.148 93.2219 13.86 93.2219 13.518C93.2219 10.746 91.6379 8.964 88.9379 8.964C86.7239 8.964 84.6719 10.8 84.6719 13.572C84.6719 16.542 86.7779 18.27 89.1539 18.27C91.2599 18.27 92.6459 17.028 93.1139 15.498L91.3499 14.94ZM100.347 9.18C100.257 9.162 100.041 9.126 99.7892 9.126C98.6372 9.126 97.6652 9.684 97.2512 10.638V9.234H95.2172V18H97.3052V13.824C97.3052 12.186 98.0432 11.25 99.6632 11.25C99.8792 11.25 100.113 11.268 100.347 11.304V9.18ZM101.334 15.624C101.442 16.614 102.414 18.27 104.952 18.27C107.184 18.27 108.264 16.794 108.264 15.462C108.264 14.166 107.4 13.158 105.744 12.798L104.412 12.528C103.872 12.42 103.53 12.078 103.53 11.61C103.53 11.07 104.052 10.602 104.79 10.602C105.96 10.602 106.338 11.412 106.41 11.916L108.174 11.412C108.03 10.548 107.238 8.964 104.79 8.964C102.972 8.964 101.568 10.26 101.568 11.79C101.568 12.996 102.378 14.004 103.926 14.346L105.222 14.634C105.924 14.778 106.248 15.138 106.248 15.606C106.248 16.146 105.798 16.614 104.934 16.614C103.818 16.614 103.224 15.912 103.152 15.12L101.334 15.624ZM124.141 7.272V5.238H113.683V7.272H117.823V18H119.983V7.272H124.141ZM125.486 12.654C125.558 11.718 126.314 10.71 127.628 10.71C129.068 10.71 129.752 11.628 129.788 12.654H125.486ZM130.022 14.94C129.734 15.804 129.086 16.47 127.826 16.47C126.53 16.47 125.486 15.516 125.432 14.184H131.84C131.858 14.148 131.894 13.86 131.894 13.518C131.894 10.746 130.31 8.964 127.61 8.964C125.396 8.964 123.344 10.8 123.344 13.572C123.344 16.542 125.45 18.27 127.826 18.27C129.932 18.27 131.318 17.028 131.786 15.498L130.022 14.94ZM137.705 10.89C139.037 10.89 139.631 11.754 139.829 12.528L141.701 11.844C141.341 10.44 140.045 8.964 137.687 8.964C135.167 8.964 133.205 10.908 133.205 13.608C133.205 16.272 135.167 18.27 137.741 18.27C140.045 18.27 141.359 16.776 141.773 15.408L139.937 14.742C139.739 15.408 139.109 16.362 137.741 16.362C136.427 16.362 135.293 15.372 135.293 13.608C135.293 11.844 136.427 10.89 137.705 10.89ZM145.715 12.852C145.751 11.736 146.381 10.872 147.533 10.872C148.847 10.872 149.333 11.736 149.333 12.816V18H151.421V12.456C151.421 10.53 150.377 8.982 148.217 8.982C147.299 8.982 146.309 9.306 145.715 10.08V4.968H143.627V18H145.715V12.852Z" fill="#1D293F"/>
<path d="M48.614 38H47.366V32.059H45.325V31.162C45.897 31.1533 46.378 31.006 46.768 30.72C47.158 30.4253 47.4007 30.044 47.496 29.576H48.614V38ZM50.324 37.701L50.74 36.648C51.182 36.9167 51.6933 37.051 52.274 37.051C53.236 37.051 53.9553 36.778 54.432 36.232C54.9173 35.6773 55.173 34.9537 55.199 34.061C55.0343 34.3643 54.7613 34.62 54.38 34.828C54.0073 35.036 53.5523 35.14 53.015 35.14C52.235 35.14 51.5547 34.8887 50.974 34.386C50.3933 33.8747 50.103 33.177 50.103 32.293C50.103 31.4437 50.4063 30.746 51.013 30.2C51.6283 29.654 52.3607 29.381 53.21 29.381C54.1113 29.381 54.8827 29.7103 55.524 30.369C56.1653 31.0277 56.486 31.9897 56.486 33.255C56.486 34.8323 56.1307 36.05 55.42 36.908C54.718 37.766 53.6693 38.195 52.274 38.195C51.9447 38.195 51.5893 38.1473 51.208 38.052C50.8267 37.9567 50.532 37.8397 50.324 37.701ZM55.03 32.267C55.03 31.747 54.848 31.3223 54.484 30.993C54.12 30.6637 53.6953 30.499 53.21 30.499C52.716 30.499 52.287 30.6637 51.923 30.993C51.5677 31.3137 51.39 31.7383 51.39 32.267C51.39 32.813 51.5677 33.2463 51.923 33.567C52.2783 33.8877 52.7073 34.048 53.21 34.048C53.704 34.048 54.1287 33.8877 54.484 33.567C54.848 33.2377 55.03 32.8043 55.03 32.267ZM62.6487 34.321V38H61.4267V28.588H62.6487V32.475C63.0647 31.8683 63.6974 31.565 64.5467 31.565C65.2661 31.565 65.8164 31.7947 66.1977 32.254C66.5877 32.7133 66.7827 33.307 66.7827 34.035V38H65.5607V34.243C65.5607 33.1943 65.0754 32.67 64.1047 32.67C63.6541 32.67 63.3031 32.826 63.0517 33.138C62.8004 33.4413 62.6661 33.8357 62.6487 34.321ZM70.0135 36.518C70.3949 36.908 70.8585 37.103 71.4045 37.103C71.9505 37.103 72.4099 36.908 72.7825 36.518C73.1639 36.1193 73.3545 35.569 73.3545 34.867C73.3545 34.1737 73.1639 33.632 72.7825 33.242C72.4099 32.8433 71.9505 32.644 71.4045 32.644C70.8585 32.644 70.3949 32.8433 70.0135 33.242C69.6409 33.632 69.4545 34.1737 69.4545 34.867C69.4545 35.569 69.6409 36.1193 70.0135 36.518ZM69.1035 32.501C69.7102 31.8683 70.4772 31.552 71.4045 31.552C72.3319 31.552 73.0945 31.8683 73.6925 32.501C74.2992 33.125 74.6025 33.9137 74.6025 34.867C74.6025 35.829 74.3035 36.6263 73.7055 37.259C73.1075 37.883 72.3405 38.195 71.4045 38.195C70.4685 38.195 69.7015 37.883 69.1035 37.259C68.5055 36.6263 68.2065 35.829 68.2065 34.867C68.2065 33.9137 68.5055 33.125 69.1035 32.501ZM80.2235 37.246C80.0588 37.558 79.8075 37.7963 79.4695 37.961C79.1315 38.117 78.7675 38.195 78.3775 38.195C77.6668 38.195 77.0992 37.961 76.6745 37.493C76.2498 37.0163 76.0375 36.414 76.0375 35.686V31.747H77.2595V35.504C77.2595 35.972 77.3722 36.3577 77.5975 36.661C77.8315 36.9643 78.1912 37.116 78.6765 37.116C79.1618 37.116 79.5302 36.973 79.7815 36.687C80.0328 36.3923 80.1585 36.0023 80.1585 35.517V31.747H81.3805V36.843C81.3805 37.2503 81.4022 37.636 81.4455 38H80.2755C80.2408 37.8093 80.2235 37.558 80.2235 37.246ZM86.9368 31.682V32.982C86.7548 32.956 86.5771 32.943 86.4038 32.943C85.2598 32.943 84.6878 33.5843 84.6878 34.867V38H83.4658V31.747H84.6618V32.839C85.0431 32.0417 85.6671 31.643 86.5338 31.643C86.6724 31.643 86.8068 31.656 86.9368 31.682ZM87.6542 36.375L88.7592 35.985C88.8026 36.323 88.9499 36.6047 89.2012 36.83C89.4526 37.0467 89.7906 37.155 90.2152 37.155C90.5446 37.155 90.8046 37.077 90.9952 36.921C91.1859 36.7563 91.2812 36.557 91.2812 36.323C91.2812 35.907 91.0126 35.6383 90.4752 35.517L89.4092 35.283C88.9239 35.179 88.5426 34.971 88.2652 34.659C87.9879 34.347 87.8492 33.97 87.8492 33.528C87.8492 32.9907 88.0659 32.527 88.4992 32.137C88.9412 31.747 89.4656 31.552 90.0722 31.552C90.4709 31.552 90.8262 31.6127 91.1382 31.734C91.4502 31.8467 91.6929 31.9983 91.8662 32.189C92.0396 32.3797 92.1696 32.5573 92.2562 32.722C92.3429 32.8867 92.4079 33.0557 92.4512 33.229L91.3722 33.632C91.3549 33.528 91.3246 33.4283 91.2812 33.333C91.2379 33.229 91.1686 33.1163 91.0732 32.995C90.9866 32.8737 90.8566 32.7783 90.6832 32.709C90.5099 32.631 90.3062 32.592 90.0722 32.592C89.7689 32.592 89.5176 32.6743 89.3182 32.839C89.1276 33.0037 89.0322 33.1987 89.0322 33.424C89.0322 33.8227 89.2706 34.074 89.7472 34.178L90.7612 34.399C91.3159 34.5203 91.7406 34.7457 92.0352 35.075C92.3386 35.3957 92.4902 35.79 92.4902 36.258C92.4902 36.752 92.2866 37.1983 91.8792 37.597C91.4806 37.9957 90.9216 38.195 90.2022 38.195C89.4309 38.195 88.8286 38.0043 88.3952 37.623C87.9619 37.233 87.7149 36.817 87.6542 36.375ZM96.9771 36.323C96.9771 35.7857 97.1505 35.3567 97.4971 35.036C97.8438 34.7067 98.3031 34.503 98.8751 34.425L100.565 34.178C100.886 34.1347 101.046 33.9787 101.046 33.71C101.046 33.3807 100.933 33.112 100.708 32.904C100.483 32.696 100.145 32.592 99.6941 32.592C99.2781 32.592 98.9488 32.709 98.7061 32.943C98.4635 33.1683 98.3205 33.4717 98.2771 33.853L97.1071 33.58C97.1678 32.982 97.4408 32.4967 97.9261 32.124C98.4115 31.7427 98.9921 31.552 99.6681 31.552C100.552 31.552 101.206 31.7687 101.631 32.202C102.056 32.6267 102.268 33.1727 102.268 33.84V36.973C102.268 37.3457 102.294 37.688 102.346 38H101.15C101.107 37.74 101.085 37.4583 101.085 37.155C100.912 37.4323 100.656 37.675 100.318 37.883C99.9888 38.091 99.5728 38.195 99.0701 38.195C98.4548 38.195 97.9521 38.013 97.5621 37.649C97.1721 37.2763 96.9771 36.8343 96.9771 36.323ZM99.2391 37.168C99.7851 37.168 100.223 37.0207 100.552 36.726C100.881 36.4313 101.046 35.9633 101.046 35.322V35.036L99.1351 35.322C98.8578 35.3653 98.6368 35.465 98.4721 35.621C98.3075 35.777 98.2251 35.9893 98.2251 36.258C98.2251 36.5007 98.3161 36.713 98.4981 36.895C98.6888 37.077 98.9358 37.168 99.2391 37.168ZM103.717 38.338L104.9 38.065C104.943 38.507 105.121 38.871 105.433 39.157C105.745 39.4517 106.135 39.599 106.603 39.599C107.877 39.599 108.514 38.923 108.514 37.571V36.674C108.358 36.9773 108.111 37.2243 107.773 37.415C107.444 37.6057 107.054 37.701 106.603 37.701C105.771 37.701 105.082 37.4193 104.536 36.856C103.999 36.284 103.73 35.556 103.73 34.672C103.73 33.814 103.999 33.0947 104.536 32.514C105.073 31.9247 105.762 31.63 106.603 31.63C107.556 31.63 108.198 31.9593 108.527 32.618V31.747H109.736V37.532C109.736 37.948 109.68 38.3337 109.567 38.689C109.463 39.053 109.294 39.3867 109.06 39.69C108.826 39.9933 108.497 40.2317 108.072 40.405C107.656 40.5783 107.166 40.665 106.603 40.665C105.832 40.665 105.177 40.444 104.64 40.002C104.103 39.5687 103.795 39.014 103.717 38.338ZM106.785 36.674C107.314 36.674 107.743 36.492 108.072 36.128C108.401 35.7553 108.566 35.27 108.566 34.672C108.566 34.074 108.401 33.593 108.072 33.229C107.743 32.8563 107.314 32.67 106.785 32.67C106.248 32.67 105.81 32.852 105.472 33.216C105.143 33.58 104.978 34.0653 104.978 34.672C104.978 35.2873 105.138 35.777 105.459 36.141C105.788 36.4963 106.23 36.674 106.785 36.674ZM112.974 36.518C113.356 36.908 113.819 37.103 114.365 37.103C114.911 37.103 115.371 36.908 115.743 36.518C116.125 36.1193 116.315 35.569 116.315 34.867C116.315 34.1737 116.125 33.632 115.743 33.242C115.371 32.8433 114.911 32.644 114.365 32.644C113.819 32.644 113.356 32.8433 112.974 33.242C112.602 33.632 112.415 34.1737 112.415 34.867C112.415 35.569 112.602 36.1193 112.974 36.518ZM112.064 32.501C112.671 31.8683 113.438 31.552 114.365 31.552C115.293 31.552 116.055 31.8683 116.653 32.501C117.26 33.125 117.563 33.9137 117.563 34.867C117.563 35.829 117.264 36.6263 116.666 37.259C116.068 37.883 115.301 38.195 114.365 38.195C113.429 38.195 112.662 37.883 112.064 37.259C111.466 36.6263 111.167 35.829 111.167 34.867C111.167 33.9137 111.466 33.125 112.064 32.501Z" fill="#8C97AC"/>
</g>
<defs>
<clipPath id="clip0_15_50">
<rect width="153" height="41" fill="white"/>
</clipPath>
</defs>
</svg>
