<svg width="14" height="19" viewBox="0 0 14 19" fill="none" xmlns="http://www.w3.org/2000/svg">
<path d="M13.3462 8.49038C13.4652 8.14201 13.5243 7.84122 13.5235 7.58813C13.5474 6.98647 13.3771 6.4442 13.0128 5.96132C13.1474 5.51796 13.1474 5.05475 13.0128 4.57187C12.8944 4.12061 12.6803 3.7487 12.3717 3.45577C12.4429 2.56904 12.249 1.8527 11.7899 1.3064C11.2831 0.704779 10.5035 0.395879 9.45049 0.380157H9.02293H8.12056H7.91872C7.39633 0.380157 6.82615 0.441505 6.20872 0.5642C5.59159 0.686978 5.1105 0.801812 4.76633 0.908661C4.42195 1.01547 3.9449 1.17185 3.33546 1.37765C2.36167 1.71799 1.73626 1.89218 1.45922 1.90004C1.25338 1.90806 1.07529 1.98513 0.924894 2.13166C0.774458 2.27798 0.699219 2.4542 0.699219 2.66V10.2717C0.699219 10.4696 0.770673 10.6418 0.913082 10.7881C1.05549 10.9347 1.22573 11.0159 1.42362 11.0317C1.61348 11.0477 1.91436 11.2811 2.32607 11.7323C2.73783 12.1835 3.13756 12.6626 3.5254 13.1693C4.06377 13.8578 4.46363 14.3328 4.72478 14.5941C4.86719 14.7364 4.98972 14.9264 5.09278 15.164C5.1956 15.4014 5.26505 15.5934 5.30091 15.7399C5.33647 15.8862 5.3897 16.1256 5.46128 16.4584C5.51652 16.7669 5.56605 17.0085 5.60972 17.1825C5.65327 17.3567 5.73025 17.5626 5.84114 17.8C5.95219 18.0377 6.08665 18.2354 6.24507 18.3936C6.39539 18.5442 6.57357 18.6195 6.7794 18.6195C7.14379 18.6195 7.46999 18.578 7.75926 18.4948C8.04819 18.4117 8.2856 18.309 8.47176 18.1863C8.65797 18.0633 8.81622 17.9033 8.9469 17.7052C9.07758 17.5074 9.17249 17.3292 9.23185 17.1709C9.29136 17.0123 9.3389 16.8148 9.37434 16.5773C9.4099 16.3396 9.42999 16.1614 9.43386 16.0427C9.43772 15.924 9.43985 15.7698 9.43985 15.5796C9.43985 15.2789 9.40042 14.9761 9.32127 14.6712C9.24187 14.3666 9.16655 14.1349 9.09551 13.9763C9.02435 13.818 8.91746 13.5926 8.775 13.2997C8.75109 13.2521 8.71166 13.1807 8.6563 13.0857C8.60107 12.9908 8.55723 12.9035 8.52562 12.8244C8.49389 12.7453 8.46232 12.6503 8.43083 12.5394H11.7201C12.3375 12.5394 12.8699 12.3137 13.3171 11.8624C13.7645 11.4112 13.9921 10.8769 14 10.2594C13.9994 9.56302 13.7817 8.97321 13.3462 8.49038Z" fill="#EB6608"/>
</svg>
