<svg width="163" height="41" viewBox="0 0 163 41" fill="none" xmlns="http://www.w3.org/2000/svg">
<g clip-path="url(#clip0_15_69)">
<path fill-rule="evenodd" clip-rule="evenodd" d="M17 39C26.3888 39 34 31.3888 34 22C34 12.6112 26.3888 5 17 5C7.61116 5 0 12.6112 0 22C0 31.3888 7.61116 39 17 39Z" fill="#233AFF"/>
<path fill-rule="evenodd" clip-rule="evenodd" d="M17 13C17.1089 13 17.2131 13.0437 17.2882 13.1208C17.5764 13.403 23.9997 19.7707 23.9997 23.8816C24.0179 25.7041 23.2863 27.4572 21.9696 28.746C20.653 30.0347 18.862 30.7508 17 30.733C15.138 30.7508 13.347 30.0347 12.0304 28.746C10.7137 27.4572 9.98211 25.7041 10.0003 23.8816C10.0003 19.7707 16.4236 13.403 16.7118 13.1208C16.7869 13.0437 16.8911 13 17 13ZM14.1178 23.8816C14.1178 26.1788 16.2589 26.7028 17 26.7028C17.7411 26.7028 19.8822 26.1788 19.8822 23.8816C19.841 22.6725 17.9058 20.0932 17.3294 19.3274C17.2516 19.2259 17.1296 19.1662 17 19.1662C16.8704 19.1662 16.7484 19.2259 16.6706 19.3274C16.6568 19.3457 16.6423 19.365 16.627 19.3853C16.0027 20.2138 14.158 22.6621 14.1178 23.8816Z" fill="white"/>
<path d="M48.69 16.02V7.218H50.976C53.19 7.218 55.008 8.658 55.008 11.646C55.008 14.598 53.172 16.02 50.958 16.02H48.69ZM51.03 18C54.486 18 57.258 15.732 57.258 11.646C57.258 7.542 54.522 5.238 51.048 5.238H46.53V18H51.03ZM64.4702 9.18C64.3802 9.162 64.1642 9.126 63.9122 9.126C62.7602 9.126 61.7882 9.684 61.3742 10.638V9.234H59.3402V18H61.4282V13.824C61.4282 12.186 62.1662 11.25 63.7862 11.25C64.0022 11.25 64.2362 11.268 64.4702 11.304V9.18ZM69.9774 16.398C68.6994 16.398 67.5294 15.426 67.5294 13.608C67.5294 11.79 68.6994 10.854 69.9774 10.854C71.2734 10.854 72.4254 11.79 72.4254 13.608C72.4254 15.444 71.2734 16.398 69.9774 16.398ZM69.9774 8.964C67.3674 8.964 65.4414 10.926 65.4414 13.608C65.4414 16.308 67.3674 18.27 69.9774 18.27C72.6054 18.27 74.5314 16.308 74.5314 13.608C74.5314 10.926 72.6054 8.964 69.9774 8.964ZM78.6192 21.42V17.01C79.0692 17.676 80.0232 18.216 81.2832 18.216C83.8032 18.216 85.4052 16.236 85.4052 13.608C85.4052 11.016 83.9472 9.036 81.3552 9.036C80.0052 9.036 78.9972 9.666 78.5652 10.422V9.234H76.5492V21.42H78.6192ZM83.3172 13.608C83.3172 15.282 82.3452 16.362 80.9592 16.362C79.5912 16.362 78.6012 15.282 78.6012 13.608C78.6012 11.97 79.5912 10.89 80.9592 10.89C82.3632 10.89 83.3172 11.97 83.3172 13.608ZM89.7525 16.02V7.218H92.0385C94.2525 7.218 96.0705 8.658 96.0705 11.646C96.0705 14.598 94.2345 16.02 92.0205 16.02H89.7525ZM92.0925 18C95.5485 18 98.3205 15.732 98.3205 11.646C98.3205 7.542 95.5845 5.238 92.1105 5.238H87.5925V18H92.0925ZM105.533 9.18C105.443 9.162 105.227 9.126 104.975 9.126C103.823 9.126 102.851 9.684 102.437 10.638V9.234H100.403V18H102.491V13.824C102.491 12.186 103.229 11.25 104.849 11.25C105.065 11.25 105.299 11.268 105.533 11.304V9.18ZM111.04 16.398C109.762 16.398 108.592 15.426 108.592 13.608C108.592 11.79 109.762 10.854 111.04 10.854C112.336 10.854 113.488 11.79 113.488 13.608C113.488 15.444 112.336 16.398 111.04 16.398ZM111.04 8.964C108.43 8.964 106.504 10.926 106.504 13.608C106.504 16.308 108.43 18.27 111.04 18.27C113.668 18.27 115.594 16.308 115.594 13.608C115.594 10.926 113.668 8.964 111.04 8.964ZM119.682 21.42V17.01C120.132 17.676 121.086 18.216 122.346 18.216C124.866 18.216 126.468 16.236 126.468 13.608C126.468 11.016 125.01 9.036 122.418 9.036C121.068 9.036 120.06 9.666 119.628 10.422V9.234H117.612V21.42H119.682ZM124.38 13.608C124.38 15.282 123.408 16.362 122.022 16.362C120.654 16.362 119.664 15.282 119.664 13.608C119.664 11.97 120.654 10.89 122.022 10.89C123.426 10.89 124.38 11.97 124.38 13.608ZM135.316 18V5.238H133.12V18H135.316ZM140.284 12.942C140.284 11.79 140.914 10.872 142.102 10.872C143.416 10.872 143.902 11.736 143.902 12.816V18H145.99V12.456C145.99 10.53 144.964 8.982 142.822 8.982C141.85 8.982 140.806 9.396 140.23 10.404V9.234H138.196V18H140.284V12.942ZM152.348 10.89C153.68 10.89 154.274 11.754 154.472 12.528L156.344 11.844C155.984 10.44 154.688 8.964 152.33 8.964C149.81 8.964 147.848 10.908 147.848 13.608C147.848 16.272 149.81 18.27 152.384 18.27C154.688 18.27 156.002 16.776 156.416 15.408L154.58 14.742C154.382 15.408 153.752 16.362 152.384 16.362C151.07 16.362 149.936 15.372 149.936 13.608C149.936 11.844 151.07 10.89 152.348 10.89ZM158.073 16.65C158.073 17.46 158.721 18.108 159.531 18.108C160.341 18.108 161.007 17.46 161.007 16.65C161.007 15.84 160.341 15.174 159.531 15.174C158.721 15.174 158.073 15.84 158.073 16.65Z" fill="#1D293F"/>
<path d="M46.833 32.605C46.82 32.475 46.807 32.345 46.807 32.228C46.807 31.266 47.327 30.499 48.432 30.499C49.498 30.499 50.018 31.214 50.018 31.981C50.018 32.631 49.654 33.229 48.861 33.736L47.457 34.646C46.027 35.569 45.481 36.622 45.455 38H51.357V36.817H47.028C47.145 36.297 47.574 35.946 48.055 35.634L49.719 34.568C50.681 33.957 51.305 33.073 51.305 31.968C51.305 30.564 50.265 29.381 48.458 29.381C46.612 29.381 45.546 30.668 45.546 32.111C45.546 32.215 45.546 32.332 45.559 32.449L46.833 32.605ZM56.8989 34.854C56.8989 33.567 57.6269 32.657 58.7449 32.657C59.8629 32.657 60.5389 33.541 60.5389 34.828C60.5389 36.115 59.8499 37.09 58.7319 37.09C57.5619 37.09 56.8989 36.141 56.8989 34.854ZM60.5519 37.155C60.5519 37.532 60.5909 37.857 60.6169 38H61.7999C61.7869 37.896 61.7349 37.441 61.7349 36.843V28.588H60.5259V32.631C60.3179 32.124 59.7199 31.578 58.6149 31.578C56.8469 31.578 55.6509 33.086 55.6509 34.854C55.6509 36.713 56.7819 38.169 58.6149 38.169C59.5899 38.169 60.2529 37.649 60.5519 37.051V37.155ZM63.4234 36.323C63.4234 37.311 64.2424 38.195 65.5164 38.195C66.6344 38.195 67.2584 37.597 67.5314 37.155C67.5314 37.61 67.5704 37.844 67.5964 38H68.7924C68.7664 37.844 68.7144 37.519 68.7144 36.973V33.84C68.7144 32.618 67.9864 31.552 66.1144 31.552C64.7624 31.552 63.6834 32.384 63.5534 33.58L64.7234 33.853C64.8014 33.125 65.2824 32.592 66.1404 32.592C67.0894 32.592 67.4924 33.099 67.4924 33.71C67.4924 33.931 67.3884 34.126 67.0114 34.178L65.3214 34.425C64.2424 34.581 63.4234 35.205 63.4234 36.323ZM65.6854 37.168C65.0614 37.168 64.6714 36.726 64.6714 36.258C64.6714 35.699 65.0614 35.4 65.5814 35.322L67.4924 35.036V35.322C67.4924 36.687 66.6864 37.168 65.6854 37.168ZM72.0512 40.613L76.1202 31.747H74.8072L72.9352 36.063L70.9852 31.747H69.5812L72.2722 37.311L70.7122 40.613H72.0512ZM76.5839 36.375C76.6879 37.09 77.4159 38.195 79.1319 38.195C80.6789 38.195 81.4199 37.142 81.4199 36.258C81.4199 35.335 80.8219 34.646 79.6909 34.399L78.6769 34.178C78.1959 34.074 77.9619 33.801 77.9619 33.424C77.9619 32.995 78.3779 32.592 79.0019 32.592C79.9899 32.592 80.2499 33.307 80.3019 33.632L81.3809 33.229C81.2509 32.67 80.7179 31.552 79.0019 31.552C77.7799 31.552 76.7789 32.462 76.7789 33.528C76.7789 34.412 77.3639 35.075 78.3389 35.283L79.4049 35.517C79.9249 35.634 80.2109 35.933 80.2109 36.323C80.2109 36.765 79.8339 37.155 79.1449 37.155C78.2609 37.155 77.7669 36.635 77.6889 35.985L76.5839 36.375ZM85.9068 36.323C85.9068 37.311 86.7258 38.195 87.9998 38.195C89.1178 38.195 89.7418 37.597 90.0148 37.155C90.0148 37.61 90.0538 37.844 90.0798 38H91.2758C91.2498 37.844 91.1978 37.519 91.1978 36.973V33.84C91.1978 32.618 90.4698 31.552 88.5978 31.552C87.2458 31.552 86.1668 32.384 86.0368 33.58L87.2068 33.853C87.2848 33.125 87.7658 32.592 88.6238 32.592C89.5728 32.592 89.9758 33.099 89.9758 33.71C89.9758 33.931 89.8718 34.126 89.4948 34.178L87.8048 34.425C86.7258 34.581 85.9068 35.205 85.9068 36.323ZM88.1688 37.168C87.5448 37.168 87.1548 36.726 87.1548 36.258C87.1548 35.699 87.5448 35.4 88.0648 35.322L89.9758 35.036V35.322C89.9758 36.687 89.1698 37.168 88.1688 37.168ZM92.6465 38.338C92.8025 39.677 93.9725 40.665 95.5325 40.665C97.8855 40.665 98.6655 39.118 98.6655 37.532V31.747H97.4565V32.618C97.1445 31.994 96.4945 31.63 95.5325 31.63C93.8165 31.63 92.6595 32.982 92.6595 34.672C92.6595 36.44 93.8685 37.701 95.5325 37.701C96.4685 37.701 97.1445 37.246 97.4435 36.674V37.571C97.4435 38.923 96.8455 39.599 95.5325 39.599C94.5835 39.599 93.9205 38.936 93.8295 38.065L92.6465 38.338ZM95.7145 36.674C94.6095 36.674 93.9075 35.894 93.9075 34.672C93.9075 33.463 94.6355 32.67 95.7145 32.67C96.7675 32.67 97.4955 33.463 97.4955 34.672C97.4955 35.881 96.7675 36.674 95.7145 36.674ZM103.295 37.103C102.255 37.103 101.345 36.323 101.345 34.867C101.345 33.424 102.255 32.644 103.295 32.644C104.335 32.644 105.245 33.424 105.245 34.867C105.245 36.323 104.335 37.103 103.295 37.103ZM103.295 31.552C101.423 31.552 100.097 32.969 100.097 34.867C100.097 36.778 101.423 38.195 103.295 38.195C105.167 38.195 106.493 36.778 106.493 34.867C106.493 32.969 105.167 31.552 103.295 31.552Z" fill="#8C97AC"/>
</g>
<defs>
<clipPath id="clip0_15_69">
<rect width="163" height="41" fill="white"/>
</clipPath>
</defs>
</svg>
