<svg width="153" height="41" viewBox="0 0 153 41" fill="none" xmlns="http://www.w3.org/2000/svg">
<g clip-path="url(#clip0_15_140)">
<path fill-rule="evenodd" clip-rule="evenodd" d="M17 39C26.3888 39 34 31.3888 34 22C34 12.6112 26.3888 5 17 5C7.61116 5 0 12.6112 0 22C0 31.3888 7.61116 39 17 39Z" fill="#8C97AC"/>
<path fill-rule="evenodd" clip-rule="evenodd" d="M10.25 17.5C11.4926 17.5 12.5 16.4926 12.5 15.25C12.5 14.0074 11.4926 13 10.25 13C9.00736 13 8 14.0074 8 15.25C8 16.4926 9.00736 17.5 10.25 17.5Z" fill="white"/>
<path fill-rule="evenodd" clip-rule="evenodd" d="M17 17.5C18.2426 17.5 19.25 16.4926 19.25 15.25C19.25 14.0074 18.2426 13 17 13C15.7574 13 14.75 14.0074 14.75 15.25C14.75 16.4926 15.7574 17.5 17 17.5Z" fill="white"/>
<path fill-rule="evenodd" clip-rule="evenodd" d="M23.75 17.5C24.9926 17.5 26 16.4926 26 15.25C26 14.0074 24.9926 13 23.75 13C22.5074 13 21.5 14.0074 21.5 15.25C21.5 16.4926 22.5074 17.5 23.75 17.5Z" fill="white"/>
<path fill-rule="evenodd" clip-rule="evenodd" d="M10.25 24.25C11.4926 24.25 12.5 23.2426 12.5 22C12.5 20.7574 11.4926 19.75 10.25 19.75C9.00736 19.75 8 20.7574 8 22C8 23.2426 9.00736 24.25 10.25 24.25Z" fill="white"/>
<path fill-rule="evenodd" clip-rule="evenodd" d="M17 24.25C18.2426 24.25 19.25 23.2426 19.25 22C19.25 20.7574 18.2426 19.75 17 19.75C15.7574 19.75 14.75 20.7574 14.75 22C14.75 23.2426 15.7574 24.25 17 24.25Z" fill="#E1F523"/>
<path fill-rule="evenodd" clip-rule="evenodd" d="M10.25 31C11.4926 31 12.5 29.9926 12.5 28.75C12.5 27.5074 11.4926 26.5 10.25 26.5C9.00736 26.5 8 27.5074 8 28.75C8 29.9926 9.00736 31 10.25 31Z" fill="white"/>
<path fill-rule="evenodd" clip-rule="evenodd" d="M17 31C18.2426 31 19.25 29.9926 19.25 28.75C19.25 27.5074 18.2426 26.5 17 26.5C15.7574 26.5 14.75 27.5074 14.75 28.75C14.75 29.9926 15.7574 31 17 31Z" fill="white"/>
<path fill-rule="evenodd" clip-rule="evenodd" d="M23.75 31C24.9926 31 26 29.9926 26 28.75C26 27.5074 24.9926 26.5 23.75 26.5C22.5074 26.5 21.5 27.5074 21.5 28.75C21.5 29.9926 22.5074 31 23.75 31Z" fill="#E1F523"/>
<path d="M54.414 18V15.984H48.69V12.6H53.874V10.638H48.69V7.254H54.414V5.238H46.53V18H54.414ZM55.6746 18H58.0686C58.2306 17.73 59.8686 15.336 60.0486 15.066L62.0826 18H64.5306L61.3446 13.536L64.4226 9.234H62.0466L60.1386 12.042C59.9766 11.79 58.3746 9.504 58.2126 9.234H55.7286L58.8606 13.572L55.6746 18ZM68.1251 21.42V17.01C68.5751 17.676 69.5291 18.216 70.7891 18.216C73.3091 18.216 74.9111 16.236 74.9111 13.608C74.9111 11.016 73.4531 9.036 70.8611 9.036C69.5111 9.036 68.5031 9.666 68.0711 10.422V9.234H66.0551V21.42H68.1251ZM72.8231 13.608C72.8231 15.282 71.8511 16.362 70.4651 16.362C69.0971 16.362 68.1071 15.282 68.1071 13.608C68.1071 11.97 69.0971 10.89 70.4651 10.89C71.8691 10.89 72.8231 11.97 72.8231 13.608ZM82.0484 9.18C81.9584 9.162 81.7424 9.126 81.4904 9.126C80.3384 9.126 79.3664 9.684 78.9524 10.638V9.234H76.9184V18H79.0064V13.824C79.0064 12.186 79.7444 11.25 81.3644 11.25C81.5804 11.25 81.8144 11.268 82.0484 11.304V9.18ZM83.269 15.624C83.269 17.01 84.403 18.27 86.239 18.27C87.661 18.27 88.525 17.55 88.939 16.884C88.939 17.586 89.011 17.946 89.029 18H90.973C90.955 17.91 90.865 17.388 90.865 16.596V12.24C90.865 10.494 89.839 8.964 87.139 8.964C84.979 8.964 83.611 10.314 83.449 11.826L85.357 12.258C85.447 11.376 86.059 10.674 87.157 10.674C88.309 10.674 88.813 11.268 88.813 12.006C88.813 12.312 88.669 12.564 88.165 12.636L85.915 12.978C84.421 13.194 83.269 14.058 83.269 15.624ZM86.635 16.632C85.807 16.632 85.357 16.092 85.357 15.498C85.357 14.778 85.879 14.418 86.527 14.31L88.813 13.968V14.364C88.813 16.074 87.805 16.632 86.635 16.632ZM97.1875 10.89C98.5195 10.89 99.1135 11.754 99.3115 12.528L101.183 11.844C100.823 10.44 99.5275 8.964 97.1695 8.964C94.6495 8.964 92.6875 10.908 92.6875 13.608C92.6875 16.272 94.6495 18.27 97.2235 18.27C99.5275 18.27 100.841 16.776 101.255 15.408L99.4195 14.742C99.2215 15.408 98.5915 16.362 97.2235 16.362C95.9095 16.362 94.7755 15.372 94.7755 13.608C94.7755 11.844 95.9095 10.89 97.1875 10.89ZM105.756 6.552H103.866V7.866C103.866 8.64 103.452 9.234 102.516 9.234H102.066V11.088H103.686V15.498C103.686 17.136 104.694 18.108 106.314 18.108C107.07 18.108 107.466 17.964 107.592 17.91V16.182C107.502 16.2 107.16 16.254 106.872 16.254C106.098 16.254 105.756 15.93 105.756 15.156V11.088H107.574V9.234H105.756V6.552ZM113.483 16.398C112.205 16.398 111.035 15.426 111.035 13.608C111.035 11.79 112.205 10.854 113.483 10.854C114.779 10.854 115.931 11.79 115.931 13.608C115.931 15.444 114.779 16.398 113.483 16.398ZM113.483 8.964C110.873 8.964 108.947 10.926 108.947 13.608C108.947 16.308 110.873 18.27 113.483 18.27C116.111 18.27 118.037 16.308 118.037 13.608C118.037 10.926 116.111 8.964 113.483 8.964Z" fill="#1D293F"/>
<path d="M48.614 38H47.366V32.059H45.325V31.162C45.897 31.1533 46.378 31.006 46.768 30.72C47.158 30.4253 47.4007 30.044 47.496 29.576H48.614V38ZM57.396 31.747H58.657L60.282 36.453L61.66 31.747H62.947L60.919 38H59.658L57.994 33.242L56.369 38H55.082L53.028 31.747H54.367L55.771 36.453L57.396 31.747ZM64.8476 34.23H68.2666C68.2493 33.762 68.0933 33.3807 67.7986 33.086C67.504 32.7827 67.088 32.631 66.5506 32.631C66.0653 32.631 65.6666 32.7913 65.3546 33.112C65.0426 33.424 64.8736 33.7967 64.8476 34.23ZM68.4486 35.855L69.5016 36.219C69.3196 36.7997 68.9816 37.2763 68.4876 37.649C67.9936 38.013 67.3956 38.195 66.6936 38.195C65.8183 38.195 65.073 37.896 64.4576 37.298C63.851 36.6913 63.5476 35.8767 63.5476 34.854C63.5476 33.9007 63.8423 33.112 64.4316 32.488C65.021 31.864 65.723 31.552 66.5376 31.552C67.4823 31.552 68.219 31.851 68.7476 32.449C69.2763 33.0383 69.5406 33.8313 69.5406 34.828C69.5406 34.984 69.532 35.114 69.5146 35.218H64.8086C64.8173 35.7727 64.9993 36.2277 65.3546 36.583C65.7186 36.9383 66.165 37.116 66.6936 37.116C67.5863 37.116 68.1713 36.6957 68.4486 35.855ZM71.8935 34.23H75.3125C75.2952 33.762 75.1392 33.3807 74.8445 33.086C74.5499 32.7827 74.1339 32.631 73.5965 32.631C73.1112 32.631 72.7125 32.7913 72.4005 33.112C72.0885 33.424 71.9195 33.7967 71.8935 34.23ZM75.4945 35.855L76.5475 36.219C76.3655 36.7997 76.0275 37.2763 75.5335 37.649C75.0395 38.013 74.4415 38.195 73.7395 38.195C72.8642 38.195 72.1189 37.896 71.5035 37.298C70.8969 36.6913 70.5935 35.8767 70.5935 34.854C70.5935 33.9007 70.8882 33.112 71.4775 32.488C72.0669 31.864 72.7689 31.552 73.5835 31.552C74.5282 31.552 75.2649 31.851 75.7935 32.449C76.3222 33.0383 76.5865 33.8313 76.5865 34.828C76.5865 34.984 76.5779 35.114 76.5605 35.218H71.8545C71.8632 35.7727 72.0452 36.2277 72.4005 36.583C72.7645 36.9383 73.2109 37.116 73.7395 37.116C74.6322 37.116 75.2172 36.6957 75.4945 35.855ZM83.7494 31.747L81.0844 34.386L83.8014 38H82.2674L80.2264 35.244L79.3554 36.115V38H78.1464V28.588H79.3554V34.516L82.0594 31.747H83.7494ZM87.8365 36.323C87.8365 35.7857 88.0099 35.3567 88.3565 35.036C88.7032 34.7067 89.1625 34.503 89.7345 34.425L91.4245 34.178C91.7452 34.1347 91.9055 33.9787 91.9055 33.71C91.9055 33.3807 91.7929 33.112 91.5675 32.904C91.3422 32.696 91.0042 32.592 90.5535 32.592C90.1375 32.592 89.8082 32.709 89.5655 32.943C89.3229 33.1683 89.1799 33.4717 89.1365 33.853L87.9665 33.58C88.0272 32.982 88.3002 32.4967 88.7855 32.124C89.2709 31.7427 89.8515 31.552 90.5275 31.552C91.4115 31.552 92.0659 31.7687 92.4905 32.202C92.9152 32.6267 93.1275 33.1727 93.1275 33.84V36.973C93.1275 37.3457 93.1535 37.688 93.2055 38H92.0095C91.9662 37.74 91.9445 37.4583 91.9445 37.155C91.7712 37.4323 91.5155 37.675 91.1775 37.883C90.8482 38.091 90.4322 38.195 89.9295 38.195C89.3142 38.195 88.8115 38.013 88.4215 37.649C88.0315 37.2763 87.8365 36.8343 87.8365 36.323ZM90.0985 37.168C90.6445 37.168 91.0822 37.0207 91.4115 36.726C91.7409 36.4313 91.9055 35.9633 91.9055 35.322V35.036L89.9945 35.322C89.7172 35.3653 89.4962 35.465 89.3315 35.621C89.1669 35.777 89.0845 35.9893 89.0845 36.258C89.0845 36.5007 89.1755 36.713 89.3575 36.895C89.5482 37.077 89.7952 37.168 90.0985 37.168ZM94.5762 38.338L95.7592 38.065C95.8025 38.507 95.9802 38.871 96.2922 39.157C96.6042 39.4517 96.9942 39.599 97.4622 39.599C98.7362 39.599 99.3732 38.923 99.3732 37.571V36.674C99.2172 36.9773 98.9702 37.2243 98.6322 37.415C98.3029 37.6057 97.9129 37.701 97.4622 37.701C96.6302 37.701 95.9412 37.4193 95.3952 36.856C94.8579 36.284 94.5892 35.556 94.5892 34.672C94.5892 33.814 94.8579 33.0947 95.3952 32.514C95.9325 31.9247 96.6215 31.63 97.4622 31.63C98.4155 31.63 99.0569 31.9593 99.3862 32.618V31.747H100.595V37.532C100.595 37.948 100.539 38.3337 100.426 38.689C100.322 39.053 100.153 39.3867 99.9192 39.69C99.6852 39.9933 99.3559 40.2317 98.9312 40.405C98.5152 40.5783 98.0255 40.665 97.4622 40.665C96.6909 40.665 96.0365 40.444 95.4992 40.002C94.9619 39.5687 94.6542 39.014 94.5762 38.338ZM97.6442 36.674C98.1729 36.674 98.6019 36.492 98.9312 36.128C99.2605 35.7553 99.4252 35.27 99.4252 34.672C99.4252 34.074 99.2605 33.593 98.9312 33.229C98.6019 32.8563 98.1729 32.67 97.6442 32.67C97.1069 32.67 96.6692 32.852 96.3312 33.216C96.0019 33.58 95.8372 34.0653 95.8372 34.672C95.8372 35.2873 95.9975 35.777 96.3182 36.141C96.6475 36.4963 97.0895 36.674 97.6442 36.674ZM103.834 36.518C104.215 36.908 104.679 37.103 105.225 37.103C105.771 37.103 106.23 36.908 106.603 36.518C106.984 36.1193 107.175 35.569 107.175 34.867C107.175 34.1737 106.984 33.632 106.603 33.242C106.23 32.8433 105.771 32.644 105.225 32.644C104.679 32.644 104.215 32.8433 103.834 33.242C103.461 33.632 103.275 34.1737 103.275 34.867C103.275 35.569 103.461 36.1193 103.834 36.518ZM102.924 32.501C103.531 31.8683 104.298 31.552 105.225 31.552C106.152 31.552 106.915 31.8683 107.513 32.501C108.12 33.125 108.423 33.9137 108.423 34.867C108.423 35.829 108.124 36.6263 107.526 37.259C106.928 37.883 106.161 38.195 105.225 38.195C104.289 38.195 103.522 37.883 102.924 37.259C102.326 36.6263 102.027 35.829 102.027 34.867C102.027 33.9137 102.326 33.125 102.924 32.501Z" fill="#8C97AC"/>
</g>
<defs>
<clipPath id="clip0_15_140">
<rect width="153" height="41" fill="white"/>
</clipPath>
</defs>
</svg>
