<svg width="205" height="66" viewBox="0 0 205 66" fill="none" xmlns="http://www.w3.org/2000/svg">
<circle cx="172" cy="33" r="33" fill="#D5DDEA"/>
<path d="M194.262 53.1866C192.901 52.1259 191.243 51.3621 189.444 50.9919L180.869 49.2947C179.969 49.125 179.32 48.3304 179.32 47.4047V45.4646C179.872 44.7009 180.392 43.6864 180.935 42.6257C181.357 41.8041 181.995 40.566 182.312 40.2459C184.048 38.5256 185.725 36.5931 186.245 34.1014C186.73 31.764 186.253 30.5374 185.694 29.55C185.694 27.0853 185.616 23.9996 185.025 21.7547C184.955 18.7153 184.396 17.0066 182.988 15.51C181.995 14.4493 180.532 14.2024 179.355 14.0057C178.894 13.9286 178.257 13.8206 178.022 13.6971C175.938 12.5863 173.877 12.0424 171.417 12C166.268 12.2083 159.937 15.4406 157.817 21.2031C157.16 22.9581 157.227 25.8394 157.282 28.1537L157.231 29.5461C156.726 30.5181 156.23 31.7524 156.718 34.0976C157.235 36.5931 158.912 38.5294 160.68 40.2729C160.969 40.566 161.622 41.8157 162.052 42.6411C162.604 43.698 163.128 44.7086 163.679 45.4684V47.4086C163.679 48.3304 163.026 49.125 162.123 49.2986L153.539 50.9957C151.752 51.3699 150.094 52.1259 148.737 53.1866C148.315 53.5221 148.049 54.012 148.006 54.5443C147.963 55.0766 148.143 55.5973 148.507 55.9946C154.349 62.3511 162.729 66 171.5 66C180.27 66 188.654 62.355 194.492 55.9946C194.856 55.5973 195.04 55.0727 194.993 54.5404C194.95 54.0081 194.684 53.5183 194.262 53.1866Z" fill="#989FB0"/>
<path d="M8.81775 40H11.2658L8.38575 34.744C10.1678 34.312 11.2658 32.926 11.2658 31.108C11.2658 28.948 9.73575 27.238 7.26975 27.238H2.37375V40H4.55175V34.96H6.13575L8.81775 40ZM4.55175 33.052V29.146H6.87375C8.20575 29.146 9.06975 29.92 9.06975 31.108C9.06975 32.278 8.20575 33.052 6.87375 33.052H4.55175ZM16.9442 38.398C15.6662 38.398 14.4962 37.426 14.4962 35.608C14.4962 33.79 15.6662 32.854 16.9442 32.854C18.2402 32.854 19.3922 33.79 19.3922 35.608C19.3922 37.444 18.2402 38.398 16.9442 38.398ZM16.9442 30.964C14.3342 30.964 12.4082 32.926 12.4082 35.608C12.4082 38.308 14.3342 40.27 16.9442 40.27C19.5722 40.27 21.4982 38.308 21.4982 35.608C21.4982 32.926 19.5722 30.964 16.9442 30.964ZM25.55 40V38.83C26.054 39.676 27.008 40.216 28.25 40.216C30.806 40.216 32.372 38.218 32.372 35.572C32.372 32.998 30.95 31 28.322 31C26.972 31 25.964 31.63 25.568 32.314V26.968H23.516V40H25.55ZM30.266 35.59C30.266 37.318 29.276 38.362 27.908 38.362C26.576 38.362 25.55 37.318 25.55 35.59C25.55 33.844 26.576 32.854 27.908 32.854C29.294 32.854 30.266 33.844 30.266 35.59ZM35.8373 34.654C35.9093 33.718 36.6653 32.71 37.9793 32.71C39.4193 32.71 40.1033 33.628 40.1393 34.654H35.8373ZM40.3733 36.94C40.0853 37.804 39.4373 38.47 38.1773 38.47C36.8813 38.47 35.8373 37.516 35.7833 36.184H42.1913C42.2093 36.148 42.2453 35.86 42.2453 35.518C42.2453 32.746 40.6613 30.964 37.9613 30.964C35.7473 30.964 33.6953 32.8 33.6953 35.572C33.6953 38.542 35.8013 40.27 38.1773 40.27C40.2833 40.27 41.6693 39.028 42.1373 37.498L40.3733 36.94ZM49.3706 31.18C49.2806 31.162 49.0646 31.126 48.8126 31.126C47.6606 31.126 46.6886 31.684 46.2746 32.638V31.234H44.2406V40H46.3286V35.824C46.3286 34.186 47.0666 33.25 48.6866 33.25C48.9026 33.25 49.1366 33.268 49.3706 33.304V31.18ZM54.1464 28.552H52.2564V29.866C52.2564 30.64 51.8424 31.234 50.9064 31.234H50.4564V33.088H52.0764V37.498C52.0764 39.136 53.0844 40.108 54.7044 40.108C55.4604 40.108 55.8564 39.964 55.9824 39.91V38.182C55.8924 38.2 55.5504 38.254 55.2624 38.254C54.4884 38.254 54.1464 37.93 54.1464 37.156V33.088H55.9644V31.234H54.1464V28.552ZM64.8795 40V34.852H70.0635V32.854H64.8795V29.272H70.6575V27.238H62.7195V40H64.8795ZM75.8133 38.398C74.5353 38.398 73.3653 37.426 73.3653 35.608C73.3653 33.79 74.5353 32.854 75.8133 32.854C77.1093 32.854 78.2613 33.79 78.2613 35.608C78.2613 37.444 77.1093 38.398 75.8133 38.398ZM75.8133 30.964C73.2033 30.964 71.2773 32.926 71.2773 35.608C71.2773 38.308 73.2033 40.27 75.8133 40.27C78.4413 40.27 80.3673 38.308 80.3673 35.608C80.3673 32.926 78.4413 30.964 75.8133 30.964ZM80.9695 40H83.3635C83.5255 39.73 85.1635 37.336 85.3435 37.066L87.3775 40H89.8255L86.6395 35.536L89.7175 31.234H87.3415L85.4335 34.042C85.2715 33.79 83.6695 31.504 83.5075 31.234H81.0235L84.1555 35.572L80.9695 40Z" fill="#1E1F28"/>
<path d="M108.869 38.6308C108.811 38.5743 108.563 38.3609 108.359 38.1622C107.076 36.9971 104.976 33.9576 104.335 32.3668C104.232 32.1252 104.014 31.5144 104 31.188C104 30.8753 104.072 30.5772 104.218 30.2927C104.422 29.9381 104.743 29.6537 105.122 29.4978C105.385 29.3975 106.172 29.2416 106.186 29.2416C107.047 29.0857 108.446 29 109.992 29C111.465 29 112.807 29.0857 113.681 29.2133C113.695 29.228 114.673 29.3838 115.008 29.5543C115.62 29.867 116 30.4778 116 31.1315V31.188C115.985 31.6137 115.605 32.509 115.591 32.509C114.949 34.0141 112.952 36.9834 111.625 38.1768C111.625 38.1768 111.284 38.5129 111.071 38.659C110.765 38.887 110.386 39 110.007 39C109.584 39 109.19 38.8724 108.869 38.6308" fill="#130F26"/>
</svg>
