<svg width="277" height="43" viewBox="0 0 277 43" fill="none" xmlns="http://www.w3.org/2000/svg">
<g clip-path="url(#clip0_15_91)">
<path fill-rule="evenodd" clip-rule="evenodd" d="M17 39C26.3888 39 34 31.3888 34 22C34 12.6112 26.3888 5 17 5C7.61116 5 0 12.6112 0 22C0 31.3888 7.61116 39 17 39Z" fill="#76C773"/>
<path opacity="0.497763" fill-rule="evenodd" clip-rule="evenodd" d="M12.5072 26.6524V21.9597L11.048 17.5798C10.9264 17.188 10.5653 16.9478 10.1909 17.0097C9.9728 17.0533 9.78338 17.1996 9.67304 17.4097C9.5627 17.6198 9.54264 17.8724 9.61821 18.1001L11.5205 23.8112C11.5471 23.8916 11.5255 23.9815 11.4663 24.0372C11.4071 24.093 11.3225 24.103 11.2537 24.0623L9.40496 22.9694C8.98219 22.7087 8.44726 22.8417 8.16947 23.2767C7.89167 23.7118 7.96202 24.3062 8.33195 24.6498L13 29C12.6808 28.2662 12.5126 27.4649 12.5072 26.6524Z" fill="white"/>
<path opacity="0.497763" fill-rule="evenodd" clip-rule="evenodd" d="M14.9931 17.6898C15.5895 17.8144 16.0645 18.2752 16.2175 18.8776L16.2303 18.926L16.3608 20L17 18.8353L15.4733 14.5417C15.352 14.1754 14.9911 13.9509 14.6171 14.0092C14.3991 14.0498 14.2097 14.1868 14.0995 14.3834C13.9893 14.5801 13.9696 14.8164 14.0456 15.0293L14.9931 17.6898Z" fill="white"/>
<path opacity="0.497763" fill-rule="evenodd" clip-rule="evenodd" d="M17.3218 18L18 16.4082C17.939 16.2308 17.8244 16.0953 17.6841 16.0346C17.5439 15.9739 17.3907 15.9936 17.2619 16.089C17.0358 16.2712 16.9412 16.641 17.0374 16.9668L17.3218 18Z" fill="white"/>
<path opacity="0.497763" fill-rule="evenodd" clip-rule="evenodd" d="M12.6436 19C12.7423 18.317 13.2693 17.7448 14 17.5273L12.8017 14.579C12.6534 14.1873 12.212 13.9473 11.7549 14.0099C11.4884 14.0531 11.2567 14.1994 11.1219 14.4095C10.987 14.6197 10.9628 14.8724 11.0556 15.1L12.6436 19Z" fill="white"/>
<path fill-rule="evenodd" clip-rule="evenodd" d="M25.5498 21.2308C25.18 21.0874 24.7664 21.2456 24.5681 21.6061L22.9047 24.694C22.8013 24.8859 22.5706 24.9527 22.3895 24.8431C22.2084 24.7334 22.1455 24.489 22.2489 24.2971L25.2243 18.7752C25.4198 18.4305 25.3539 17.9868 25.068 17.7224C24.8961 17.5728 24.6707 17.5112 24.452 17.5539C24.2332 17.5966 24.0434 17.7394 23.9331 17.9441L20.9369 23.5044C20.87 23.6286 20.7457 23.7054 20.6108 23.7061C20.4759 23.7068 20.3509 23.6311 20.2829 23.5077C20.2149 23.3842 20.2142 23.2316 20.2811 23.1075L23.4442 17.2374C23.6412 16.8921 23.5752 16.4467 23.2879 16.1819C23.1159 16.0322 22.8904 15.9705 22.6715 16.0133C22.4527 16.0561 22.2628 16.1991 22.1526 16.404L18.9699 22.3112C18.8665 22.5031 18.6358 22.5698 18.4547 22.4602C18.2736 22.3506 18.2107 22.1062 18.3141 21.9142L20.7281 17.4327C20.9225 17.0885 20.8567 16.6461 20.5718 16.382C20.3998 16.2322 20.1743 16.1706 19.9555 16.2134C19.7366 16.2562 19.5467 16.3991 19.4365 16.604L16.3591 22.406C16.3192 22.4813 16.2381 22.5209 16.1581 22.5042C16.0781 22.4875 16.0172 22.4182 16.0073 22.3324L15.6675 19.4574C15.5644 19.0326 15.187 18.7487 14.7746 18.786C14.3246 18.8458 13.9901 19.2566 14.0002 19.7371V26.3314C14.0062 27.9745 14.8393 29.4892 16.1855 30.3043C18.378 31.6935 21.218 30.9372 22.5305 28.6145L25.9005 22.36C26.0066 22.1632 26.029 21.928 25.9621 21.7127C25.8953 21.4974 25.7454 21.3223 25.5498 21.2308Z" fill="white"/>
<path d="M56.862 18V5.238H54.684V10.512H48.69V5.238H46.53V18H48.69V12.546H54.684V18H56.862ZM61.1674 12.654C61.2394 11.718 61.9954 10.71 63.3094 10.71C64.7494 10.71 65.4334 11.628 65.4694 12.654H61.1674ZM65.7034 14.94C65.4154 15.804 64.7674 16.47 63.5074 16.47C62.2114 16.47 61.1674 15.516 61.1134 14.184H67.5214C67.5394 14.148 67.5754 13.86 67.5754 13.518C67.5754 10.746 65.9914 8.964 63.2914 8.964C61.0774 8.964 59.0254 10.8 59.0254 13.572C59.0254 16.542 61.1314 18.27 63.5074 18.27C65.6134 18.27 66.9994 17.028 67.4674 15.498L65.7034 14.94ZM71.6587 18V4.968H69.5707V18H71.6587ZM76.422 21.42V17.01C76.872 17.676 77.826 18.216 79.086 18.216C81.606 18.216 83.208 16.236 83.208 13.608C83.208 11.016 81.75 9.036 79.158 9.036C77.808 9.036 76.8 9.666 76.368 10.422V9.234H74.352V21.42H76.422ZM81.12 13.608C81.12 15.282 80.148 16.362 78.762 16.362C77.394 16.362 76.404 15.282 76.404 13.608C76.404 11.97 77.394 10.89 78.762 10.89C80.166 10.89 81.12 11.97 81.12 13.608ZM89.3192 18V6.336H87.4472C87.1952 7.56 86.0432 8.496 84.3692 8.532V10.008H87.1952V18H89.3192ZM95.7967 11.196C94.6447 11.178 93.8887 10.458 93.8887 9.486C93.8887 8.604 94.6087 7.83 95.7967 7.83C96.9847 7.83 97.7227 8.604 97.7227 9.486C97.7227 10.458 96.9667 11.178 95.7967 11.196ZM95.7967 16.452C94.3927 16.452 93.6187 15.624 93.6187 14.67C93.6187 13.716 94.3927 12.87 95.7967 12.87C97.2187 12.87 97.9927 13.716 97.9927 14.67C97.9927 15.624 97.2187 16.452 95.7967 16.452ZM95.7967 18.27C98.4787 18.27 100.135 16.83 100.135 14.886C100.135 13.554 99.1987 12.456 97.9747 12.024C99.0907 11.61 99.8647 10.494 99.8647 9.36C99.8647 7.416 98.1367 6.066 95.7967 6.066C93.4567 6.066 91.7467 7.416 91.7467 9.36C91.7467 10.512 92.5207 11.61 93.6367 12.024C92.3947 12.456 91.4767 13.554 91.4767 14.886C91.4767 16.83 93.1327 18.27 95.7967 18.27ZM103.763 12.168C103.763 10.692 104.015 9.558 104.591 8.838C104.987 8.316 105.545 7.974 106.391 7.974C107.237 7.974 107.777 8.316 108.191 8.838C108.749 9.558 109.001 10.692 109.001 12.168C109.001 13.644 108.749 14.778 108.191 15.498C107.777 16.02 107.237 16.362 106.391 16.362C105.545 16.362 104.987 16.02 104.591 15.498C104.033 14.778 103.763 13.644 103.763 12.168ZM101.621 12.168C101.621 13.716 101.873 15.174 102.665 16.362C103.421 17.496 104.645 18.27 106.391 18.27C108.137 18.27 109.343 17.496 110.099 16.362C110.891 15.174 111.143 13.716 111.143 12.168C111.143 10.62 110.891 9.162 110.099 7.974C109.343 6.84 108.137 6.066 106.391 6.066C104.645 6.066 103.421 6.84 102.665 7.974C101.873 9.162 101.621 10.62 101.621 12.168Z" fill="#1D293F"/>
<path d="M45.455 36.102V34.633L49.069 29.576H50.824V34.919H52.267V36.102H50.824V38H49.589V36.102H45.455ZM49.589 34.919V30.798L46.625 34.919H49.589ZM57.4828 34.854C57.4828 35.5127 57.6432 36.05 57.9638 36.466C58.2932 36.882 58.7438 37.09 59.3158 37.09C59.8618 37.09 60.2995 36.8777 60.6288 36.453C60.9582 36.0283 61.1228 35.4867 61.1228 34.828C61.1228 34.178 60.9625 33.6537 60.6418 33.255C60.3212 32.8563 59.8835 32.657 59.3288 32.657C58.7742 32.657 58.3278 32.8607 57.9898 33.268C57.6518 33.6753 57.4828 34.204 57.4828 34.854ZM61.1358 37.155V37.051C60.9712 37.3717 60.7198 37.6403 60.3818 37.857C60.0525 38.065 59.6582 38.169 59.1988 38.169C58.3062 38.169 57.5868 37.857 57.0408 37.233C56.5035 36.6003 56.2348 35.8073 56.2348 34.854C56.2348 33.944 56.5122 33.1727 57.0668 32.54C57.6215 31.8987 58.3322 31.578 59.1988 31.578C59.7102 31.578 60.1262 31.682 60.4468 31.89C60.7675 32.0893 60.9885 32.3363 61.1098 32.631V28.588H62.3188V36.843C62.3188 37.2677 62.3405 37.6533 62.3838 38H61.2008C61.1575 37.7573 61.1358 37.4757 61.1358 37.155ZM64.0074 36.323C64.0074 35.7857 64.1808 35.3567 64.5274 35.036C64.8741 34.7067 65.3334 34.503 65.9054 34.425L67.5954 34.178C67.9161 34.1347 68.0764 33.9787 68.0764 33.71C68.0764 33.3807 67.9638 33.112 67.7384 32.904C67.5131 32.696 67.1751 32.592 66.7244 32.592C66.3084 32.592 65.9791 32.709 65.7364 32.943C65.4938 33.1683 65.3508 33.4717 65.3074 33.853L64.1374 33.58C64.1981 32.982 64.4711 32.4967 64.9564 32.124C65.4418 31.7427 66.0224 31.552 66.6984 31.552C67.5824 31.552 68.2368 31.7687 68.6614 32.202C69.0861 32.6267 69.2984 33.1727 69.2984 33.84V36.973C69.2984 37.3457 69.3244 37.688 69.3764 38H68.1804C68.1371 37.74 68.1154 37.4583 68.1154 37.155C67.9421 37.4323 67.6864 37.675 67.3484 37.883C67.0191 38.091 66.6031 38.195 66.1004 38.195C65.4851 38.195 64.9824 38.013 64.5924 37.649C64.2024 37.2763 64.0074 36.8343 64.0074 36.323ZM66.2694 37.168C66.8154 37.168 67.2531 37.0207 67.5824 36.726C67.9118 36.4313 68.0764 35.9633 68.0764 35.322V35.036L66.1654 35.322C65.8881 35.3653 65.6671 35.465 65.5024 35.621C65.3378 35.777 65.2554 35.9893 65.2554 36.258C65.2554 36.5007 65.3464 36.713 65.5284 36.895C65.7191 37.077 65.9661 37.168 66.2694 37.168ZM72.6352 40.613H71.2962L72.8562 37.311L70.1652 31.747H71.5692L73.5192 36.063L75.3912 31.747H76.7042L72.6352 40.613ZM77.1679 36.375L78.2729 35.985C78.3162 36.323 78.4636 36.6047 78.7149 36.83C78.9662 37.0467 79.3042 37.155 79.7289 37.155C80.0582 37.155 80.3182 37.077 80.5089 36.921C80.6996 36.7563 80.7949 36.557 80.7949 36.323C80.7949 35.907 80.5262 35.6383 79.9889 35.517L78.9229 35.283C78.4376 35.179 78.0562 34.971 77.7789 34.659C77.5016 34.347 77.3629 33.97 77.3629 33.528C77.3629 32.9907 77.5796 32.527 78.0129 32.137C78.4549 31.747 78.9792 31.552 79.5859 31.552C79.9846 31.552 80.3399 31.6127 80.6519 31.734C80.9639 31.8467 81.2066 31.9983 81.3799 32.189C81.5532 32.3797 81.6832 32.5573 81.7699 32.722C81.8566 32.8867 81.9216 33.0557 81.9649 33.229L80.8859 33.632C80.8686 33.528 80.8382 33.4283 80.7949 33.333C80.7516 33.229 80.6822 33.1163 80.5869 32.995C80.5002 32.8737 80.3702 32.7783 80.1969 32.709C80.0236 32.631 79.8199 32.592 79.5859 32.592C79.2826 32.592 79.0312 32.6743 78.8319 32.839C78.6412 33.0037 78.5459 33.1987 78.5459 33.424C78.5459 33.8227 78.7842 34.074 79.2609 34.178L80.2749 34.399C80.8296 34.5203 81.2542 34.7457 81.5489 35.075C81.8522 35.3957 82.0039 35.79 82.0039 36.258C82.0039 36.752 81.8002 37.1983 81.3929 37.597C80.9942 37.9957 80.4352 38.195 79.7159 38.195C78.9446 38.195 78.3422 38.0043 77.9089 37.623C77.4756 37.233 77.2286 36.817 77.1679 36.375ZM86.4908 36.323C86.4908 35.7857 86.6642 35.3567 87.0108 35.036C87.3575 34.7067 87.8168 34.503 88.3888 34.425L90.0788 34.178C90.3995 34.1347 90.5598 33.9787 90.5598 33.71C90.5598 33.3807 90.4472 33.112 90.2218 32.904C89.9965 32.696 89.6585 32.592 89.2078 32.592C88.7918 32.592 88.4625 32.709 88.2198 32.943C87.9772 33.1683 87.8342 33.4717 87.7908 33.853L86.6208 33.58C86.6815 32.982 86.9545 32.4967 87.4398 32.124C87.9252 31.7427 88.5058 31.552 89.1818 31.552C90.0658 31.552 90.7202 31.7687 91.1448 32.202C91.5695 32.6267 91.7818 33.1727 91.7818 33.84V36.973C91.7818 37.3457 91.8078 37.688 91.8598 38H90.6638C90.6205 37.74 90.5988 37.4583 90.5988 37.155C90.4255 37.4323 90.1698 37.675 89.8318 37.883C89.5025 38.091 89.0865 38.195 88.5838 38.195C87.9685 38.195 87.4658 38.013 87.0758 37.649C86.6858 37.2763 86.4908 36.8343 86.4908 36.323ZM88.7528 37.168C89.2988 37.168 89.7365 37.0207 90.0658 36.726C90.3952 36.4313 90.5598 35.9633 90.5598 35.322V35.036L88.6488 35.322C88.3715 35.3653 88.1505 35.465 87.9858 35.621C87.8212 35.777 87.7388 35.9893 87.7388 36.258C87.7388 36.5007 87.8298 36.713 88.0118 36.895C88.2025 37.077 88.4495 37.168 88.7528 37.168ZM93.2305 38.338L94.4135 38.065C94.4568 38.507 94.6345 38.871 94.9465 39.157C95.2585 39.4517 95.6485 39.599 96.1165 39.599C97.3905 39.599 98.0275 38.923 98.0275 37.571V36.674C97.8715 36.9773 97.6245 37.2243 97.2865 37.415C96.9572 37.6057 96.5672 37.701 96.1165 37.701C95.2845 37.701 94.5955 37.4193 94.0495 36.856C93.5122 36.284 93.2435 35.556 93.2435 34.672C93.2435 33.814 93.5122 33.0947 94.0495 32.514C94.5868 31.9247 95.2758 31.63 96.1165 31.63C97.0698 31.63 97.7112 31.9593 98.0405 32.618V31.747H99.2495V37.532C99.2495 37.948 99.1932 38.3337 99.0805 38.689C98.9765 39.053 98.8075 39.3867 98.5735 39.69C98.3395 39.9933 98.0102 40.2317 97.5855 40.405C97.1695 40.5783 96.6798 40.665 96.1165 40.665C95.3452 40.665 94.6908 40.444 94.1535 40.002C93.6162 39.5687 93.3085 39.014 93.2305 38.338ZM96.2985 36.674C96.8272 36.674 97.2562 36.492 97.5855 36.128C97.9148 35.7553 98.0795 35.27 98.0795 34.672C98.0795 34.074 97.9148 33.593 97.5855 33.229C97.2562 32.8563 96.8272 32.67 96.2985 32.67C95.7612 32.67 95.3235 32.852 94.9855 33.216C94.6562 33.58 94.4915 34.0653 94.4915 34.672C94.4915 35.2873 94.6518 35.777 94.9725 36.141C95.3018 36.4963 95.7438 36.674 96.2985 36.674ZM102.488 36.518C102.869 36.908 103.333 37.103 103.879 37.103C104.425 37.103 104.884 36.908 105.257 36.518C105.638 36.1193 105.829 35.569 105.829 34.867C105.829 34.1737 105.638 33.632 105.257 33.242C104.884 32.8433 104.425 32.644 103.879 32.644C103.333 32.644 102.869 32.8433 102.488 33.242C102.115 33.632 101.929 34.1737 101.929 34.867C101.929 35.569 102.115 36.1193 102.488 36.518ZM101.578 32.501C102.185 31.8683 102.952 31.552 103.879 31.552C104.806 31.552 105.569 31.8683 106.167 32.501C106.774 33.125 107.077 33.9137 107.077 34.867C107.077 35.829 106.778 36.6263 106.18 37.259C105.582 37.883 104.815 38.195 103.879 38.195C102.943 38.195 102.176 37.883 101.578 37.259C100.98 36.6263 100.681 35.829 100.681 34.867C100.681 33.9137 100.98 33.125 101.578 32.501Z" fill="#8C97AC"/>
<g clip-path="url(#clip1_15_91)">
<rect x="180" y="10" width="97" height="33" rx="5" fill="#E9F7FE"/>
<path d="M197.208 25.027C197.032 24.158 196.317 23.036 194.48 23.036C193.028 23.036 191.829 24.114 191.829 25.423C191.829 26.589 192.621 27.37 193.809 27.612L194.909 27.843C195.58 27.986 195.954 28.393 195.954 28.899C195.954 29.504 195.47 29.977 194.535 29.977C193.413 29.977 192.83 29.229 192.753 28.415L191.521 28.767C191.642 29.889 192.555 31.165 194.535 31.165C196.317 31.165 197.296 30.01 197.296 28.8C197.296 27.7 196.559 26.831 195.184 26.556L194.062 26.325C193.457 26.193 193.149 25.819 193.149 25.324C193.149 24.73 193.699 24.202 194.491 24.202C195.536 24.202 195.943 24.917 196.02 25.401L197.208 25.027ZM201.087 26.787V24.367H202.462C203.298 24.367 203.804 24.84 203.804 25.588C203.804 26.325 203.298 26.787 202.462 26.787H201.087ZM202.66 27.953C204.156 27.953 205.146 26.952 205.146 25.577C205.146 24.213 204.156 23.201 202.66 23.201H199.767V31H201.087V27.953H202.66ZM208.364 27.095C208.364 25.214 209.662 24.279 210.971 24.279C212.291 24.279 213.589 25.214 213.589 27.095C213.589 28.976 212.291 29.911 210.971 29.911C209.662 29.911 208.364 28.976 208.364 27.095ZM207.011 27.095C207.011 29.658 208.925 31.165 210.971 31.165C213.017 31.165 214.942 29.658 214.942 27.095C214.942 24.543 213.017 23.036 210.971 23.036C208.925 23.036 207.011 24.543 207.011 27.095ZM223.981 31V23.201H222.661V28.734L219.119 23.201H217.436V31H218.756V25.093L222.606 31H223.981ZM232.073 25.027C231.897 24.158 231.182 23.036 229.345 23.036C227.893 23.036 226.694 24.114 226.694 25.423C226.694 26.589 227.486 27.37 228.674 27.612L229.774 27.843C230.445 27.986 230.819 28.393 230.819 28.899C230.819 29.504 230.335 29.977 229.4 29.977C228.278 29.977 227.695 29.229 227.618 28.415L226.386 28.767C226.507 29.889 227.42 31.165 229.4 31.165C231.182 31.165 232.161 30.01 232.161 28.8C232.161 27.7 231.424 26.831 230.049 26.556L228.927 26.325C228.322 26.193 228.014 25.819 228.014 25.324C228.014 24.73 228.564 24.202 229.356 24.202C230.401 24.202 230.808 24.917 230.885 25.401L232.073 25.027ZM235.48 27.095C235.48 25.214 236.778 24.279 238.087 24.279C239.407 24.279 240.705 25.214 240.705 27.095C240.705 28.976 239.407 29.911 238.087 29.911C236.778 29.911 235.48 28.976 235.48 27.095ZM234.127 27.095C234.127 29.658 236.041 31.165 238.087 31.165C240.133 31.165 242.058 29.658 242.058 27.095C242.058 24.543 240.133 23.036 238.087 23.036C236.041 23.036 234.127 24.543 234.127 27.095ZM248.489 31H249.985L248.225 27.788C249.314 27.524 249.985 26.677 249.985 25.566C249.985 24.246 249.05 23.201 247.543 23.201H244.551V31H245.882V27.92H246.85L248.489 31ZM245.882 26.754V24.367H247.301C248.115 24.367 248.643 24.84 248.643 25.566C248.643 26.281 248.115 26.754 247.301 26.754H245.882ZM257.312 31V29.768H253.814V27.7H256.982V26.501H253.814V24.433H257.312V23.201H252.494V31H257.312ZM261.317 29.79V24.411H262.714C264.067 24.411 265.178 25.291 265.178 27.117C265.178 28.921 264.056 29.79 262.703 29.79H261.317ZM262.747 31C264.859 31 266.553 29.614 266.553 27.117C266.553 24.609 264.881 23.201 262.758 23.201H259.997V31H262.747Z" fill="#8C97AC"/>
</g>
</g>
<defs>
<clipPath id="clip0_15_91">
<rect width="277" height="43" fill="white"/>
</clipPath>
<clipPath id="clip1_15_91">
<rect width="97" height="33" fill="white" transform="translate(180 10)"/>
</clipPath>
</defs>
</svg>
