<svg width="5" height="11" viewBox="0 0 5 11" fill="none" xmlns="http://www.w3.org/2000/svg">
<path d="M4.17994 0.899673H0.760126C0.55429 0.899673 0.376195 0.974913 0.225634 1.12535C0.075239 1.2757 0 1.45384 0 1.65959V9.25957C0 9.46537 0.075239 9.64359 0.225675 9.7939C0.37607 9.94421 0.554165 10.0195 0.760168 10.0195H4.17994C4.38574 10.0195 4.56379 9.94421 4.71427 9.7939C4.86466 9.64363 4.93986 9.46541 4.93986 9.25957V1.65959C4.93986 1.45384 4.86462 1.27574 4.71427 1.12535C4.56383 0.974871 4.38578 0.899673 4.17994 0.899673ZM2.81429 3.71409C2.66389 3.86453 2.4858 3.93968 2.27996 3.93968C2.06618 3.93968 1.88605 3.86453 1.73969 3.71409C1.59324 3.56365 1.52004 3.3856 1.52004 3.17964C1.52004 2.96598 1.5932 2.78581 1.73969 2.63932C1.88609 2.49288 2.06618 2.41972 2.27996 2.41972C2.4858 2.41972 2.66389 2.49288 2.81429 2.63932C2.96489 2.78577 3.03996 2.96598 3.03996 3.17964C3.03996 3.38543 2.96472 3.56349 2.81429 3.71409Z" fill="#EB6608"/>
</svg>
