<svg width="19" height="18" viewBox="0 0 19 18" fill="none" xmlns="http://www.w3.org/2000/svg">
<path d="M13.775 0C11.0247 0 9.5 1.9855 9.5 1.9855C9.5 1.9855 7.97525 0 5.225 0C2.3389 0 0 2.3389 0 5.225C0 10.45 9.5 17.1 9.5 17.1C9.5 17.1 19 10.45 19 5.225C19 2.3389 16.6611 0 13.775 0ZM9.5 14.7421C6.19115 12.2028 1.9 7.9857 1.9 5.225C1.9 3.3915 3.3915 1.9 5.225 1.9C7.5069 1.9 9.5 4.66165 9.5 4.66165C9.5 4.66165 11.533 1.9 13.775 1.9C15.6085 1.9 17.1 3.3915 17.1 5.225C17.1 7.9857 12.8089 12.2028 9.5 14.7421Z" fill="#76B72A"/>
</svg>
