<svg width="88" height="15" viewBox="0 0 88 15" fill="none" xmlns="http://www.w3.org/2000/svg">
<path d="M6.81775 14H9.26575L6.38575 8.744C8.16775 8.312 9.26575 6.926 9.26575 5.108C9.26575 2.948 7.73575 1.238 5.26975 1.238H0.37375V14H2.55175V8.96H4.13575L6.81775 14ZM2.55175 7.052V3.146H4.87375C6.20575 3.146 7.06975 3.92 7.06975 5.108C7.06975 6.278 6.20575 7.052 4.87375 7.052H2.55175ZM14.9442 12.398C13.6662 12.398 12.4962 11.426 12.4962 9.608C12.4962 7.79 13.6662 6.854 14.9442 6.854C16.2402 6.854 17.3922 7.79 17.3922 9.608C17.3922 11.444 16.2402 12.398 14.9442 12.398ZM14.9442 4.964C12.3342 4.964 10.4082 6.926 10.4082 9.608C10.4082 12.308 12.3342 14.27 14.9442 14.27C17.5722 14.27 19.4982 12.308 19.4982 9.608C19.4982 6.926 17.5722 4.964 14.9442 4.964ZM23.55 14V12.83C24.054 13.676 25.008 14.216 26.25 14.216C28.806 14.216 30.372 12.218 30.372 9.572C30.372 6.998 28.95 5 26.322 5C24.972 5 23.964 5.63 23.568 6.314V0.967999H21.516V14H23.55ZM28.266 9.59C28.266 11.318 27.276 12.362 25.908 12.362C24.576 12.362 23.55 11.318 23.55 9.59C23.55 7.844 24.576 6.854 25.908 6.854C27.294 6.854 28.266 7.844 28.266 9.59ZM33.8373 8.654C33.9093 7.718 34.6653 6.71 35.9793 6.71C37.4193 6.71 38.1033 7.628 38.1393 8.654H33.8373ZM38.3733 10.94C38.0853 11.804 37.4373 12.47 36.1773 12.47C34.8813 12.47 33.8373 11.516 33.7833 10.184H40.1913C40.2093 10.148 40.2453 9.86 40.2453 9.518C40.2453 6.746 38.6613 4.964 35.9613 4.964C33.7473 4.964 31.6953 6.8 31.6953 9.572C31.6953 12.542 33.8013 14.27 36.1773 14.27C38.2833 14.27 39.6693 13.028 40.1373 11.498L38.3733 10.94ZM47.3706 5.18C47.2806 5.162 47.0646 5.126 46.8126 5.126C45.6606 5.126 44.6886 5.684 44.2746 6.638V5.234H42.2406V14H44.3286V9.824C44.3286 8.186 45.0666 7.25 46.6866 7.25C46.9026 7.25 47.1366 7.268 47.3706 7.304V5.18ZM52.1464 2.552H50.2564V3.866C50.2564 4.64 49.8424 5.234 48.9064 5.234H48.4564V7.088H50.0764V11.498C50.0764 13.136 51.0844 14.108 52.7044 14.108C53.4604 14.108 53.8564 13.964 53.9824 13.91V12.182C53.8924 12.2 53.5504 12.254 53.2624 12.254C52.4884 12.254 52.1464 11.93 52.1464 11.156V7.088H53.9644V5.234H52.1464V2.552ZM62.8795 14V8.852H68.0635V6.854H62.8795V3.272H68.6575V1.238H60.7195V14H62.8795ZM73.8133 12.398C72.5353 12.398 71.3653 11.426 71.3653 9.608C71.3653 7.79 72.5353 6.854 73.8133 6.854C75.1093 6.854 76.2613 7.79 76.2613 9.608C76.2613 11.444 75.1093 12.398 73.8133 12.398ZM73.8133 4.964C71.2033 4.964 69.2773 6.926 69.2773 9.608C69.2773 12.308 71.2033 14.27 73.8133 14.27C76.4413 14.27 78.3673 12.308 78.3673 9.608C78.3673 6.926 76.4413 4.964 73.8133 4.964ZM78.9695 14H81.3635C81.5255 13.73 83.1635 11.336 83.3435 11.066L85.3775 14H87.8255L84.6395 9.536L87.7175 5.234H85.3415L83.4335 8.042C83.2715 7.79 81.6695 5.504 81.5075 5.234H79.0235L82.1555 9.572L78.9695 14Z" fill="#1E1F28"/>
</svg>
