<svg width="153" height="41" viewBox="0 0 153 41" fill="none" xmlns="http://www.w3.org/2000/svg">
<g clip-path="url(#clip0_15_118)">
<path fill-rule="evenodd" clip-rule="evenodd" d="M17 39C26.3888 39 34 31.3888 34 22C34 12.6112 26.3888 5 17 5C7.61116 5 0 12.6112 0 22C0 31.3888 7.61116 39 17 39Z" fill="#F5A623"/>
<path fill-rule="evenodd" clip-rule="evenodd" d="M22.8183 19H9.36346C9.23469 19 9.11556 18.9488 9.05025 18.8656C8.98494 18.7824 8.98318 18.6795 9.04563 18.595L10.8639 16.1405C10.9279 16.0538 11.0496 16.0001 11.1817 16H24.6365C24.7653 16 24.8844 16.0512 24.9497 16.1344C25.0151 16.2176 25.0168 16.3205 24.9544 16.405L23.1361 18.8595C23.0721 18.9462 22.9504 18.9999 22.8183 19Z" fill="white"/>
<path fill-rule="evenodd" clip-rule="evenodd" d="M22.8183 24H9.36346C9.23469 24 9.11556 23.9488 9.05025 23.8656C8.98494 23.7824 8.98318 23.6795 9.04563 23.595L10.8639 21.1405C10.9279 21.0538 11.0496 21.0001 11.1817 21H24.6365C24.7653 21 24.8844 21.0512 24.9497 21.1344C25.0151 21.2176 25.0168 21.3205 24.9544 21.405L23.1361 23.8595C23.0721 23.9462 22.9504 23.9999 22.8183 24Z" fill="white"/>
<path fill-rule="evenodd" clip-rule="evenodd" d="M22.8183 29H9.36346C9.23469 29 9.11556 28.9488 9.05025 28.8656C8.98494 28.7824 8.98318 28.6795 9.04563 28.595L10.8639 26.1405C10.9279 26.0538 11.0496 26.0001 11.1817 26H24.6365C24.7653 26 24.8844 26.0512 24.9497 26.1344C25.0151 26.2176 25.0168 26.3205 24.9544 26.405L23.1361 28.8595C23.0721 28.9462 22.9504 28.9999 22.8183 29Z" fill="white"/>
<path d="M54.918 8.226C54.63 6.804 53.46 4.968 50.454 4.968C48.078 4.968 46.116 6.732 46.116 8.874C46.116 10.782 47.412 12.06 49.356 12.456L51.156 12.834C52.254 13.068 52.866 13.734 52.866 14.562C52.866 15.552 52.074 16.326 50.544 16.326C48.708 16.326 47.754 15.102 47.628 13.77L45.612 14.346C45.81 16.182 47.304 18.27 50.544 18.27C53.46 18.27 55.062 16.38 55.062 14.4C55.062 12.6 53.856 11.178 51.606 10.728L49.77 10.35C48.78 10.134 48.276 9.522 48.276 8.712C48.276 7.74 49.176 6.876 50.472 6.876C52.182 6.876 52.848 8.046 52.974 8.838L54.918 8.226ZM59.1255 12.852C59.1615 11.736 59.7915 10.872 60.9435 10.872C62.2575 10.872 62.7435 11.736 62.7435 12.816V18H64.8315V12.456C64.8315 10.53 63.7875 8.982 61.6275 8.982C60.7095 8.982 59.7195 9.306 59.1255 10.08V4.968H57.0375V18H59.1255V12.852ZM66.8334 15.624C66.8334 17.01 67.9674 18.27 69.8034 18.27C71.2254 18.27 72.0894 17.55 72.5034 16.884C72.5034 17.586 72.5754 17.946 72.5934 18H74.5374C74.5194 17.91 74.4294 17.388 74.4294 16.596V12.24C74.4294 10.494 73.4034 8.964 70.7034 8.964C68.5434 8.964 67.1754 10.314 67.0134 11.826L68.9214 12.258C69.0114 11.376 69.6234 10.674 70.7214 10.674C71.8734 10.674 72.3774 11.268 72.3774 12.006C72.3774 12.312 72.2334 12.564 71.7294 12.636L69.4794 12.978C67.9854 13.194 66.8334 14.058 66.8334 15.624ZM70.1994 16.632C69.3714 16.632 68.9214 16.092 68.9214 15.498C68.9214 14.778 69.4434 14.418 70.0914 14.31L72.3774 13.968V14.364C72.3774 16.074 71.3694 16.632 70.1994 16.632ZM79.0235 21.42V17.01C79.4735 17.676 80.4275 18.216 81.6875 18.216C84.2075 18.216 85.8095 16.236 85.8095 13.608C85.8095 11.016 84.3515 9.036 81.7595 9.036C80.4095 9.036 79.4015 9.666 78.9695 10.422V9.234H76.9535V21.42H79.0235ZM83.7215 13.608C83.7215 15.282 82.7495 16.362 81.3635 16.362C79.9955 16.362 79.0055 15.282 79.0055 13.608C79.0055 11.97 79.9955 10.89 81.3635 10.89C82.7675 10.89 83.7215 11.97 83.7215 13.608ZM89.2748 12.654C89.3468 11.718 90.1028 10.71 91.4168 10.71C92.8568 10.71 93.5408 11.628 93.5768 12.654H89.2748ZM93.8108 14.94C93.5228 15.804 92.8748 16.47 91.6148 16.47C90.3188 16.47 89.2748 15.516 89.2208 14.184H95.6288C95.6468 14.148 95.6828 13.86 95.6828 13.518C95.6828 10.746 94.0988 8.964 91.3988 8.964C89.1848 8.964 87.1328 10.8 87.1328 13.572C87.1328 16.542 89.2388 18.27 91.6148 18.27C93.7208 18.27 95.1068 17.028 95.5748 15.498L93.8108 14.94ZM102.808 9.18C102.718 9.162 102.502 9.126 102.25 9.126C101.098 9.126 100.126 9.684 99.7121 10.638V9.234H97.6781V18H99.7661V13.824C99.7661 12.186 100.504 11.25 102.124 11.25C102.34 11.25 102.574 11.268 102.808 11.304V9.18ZM103.795 15.624C103.903 16.614 104.875 18.27 107.413 18.27C109.645 18.27 110.725 16.794 110.725 15.462C110.725 14.166 109.861 13.158 108.205 12.798L106.873 12.528C106.333 12.42 105.991 12.078 105.991 11.61C105.991 11.07 106.513 10.602 107.251 10.602C108.421 10.602 108.799 11.412 108.871 11.916L110.635 11.412C110.491 10.548 109.699 8.964 107.251 8.964C105.433 8.964 104.029 10.26 104.029 11.79C104.029 12.996 104.839 14.004 106.387 14.346L107.683 14.634C108.385 14.778 108.709 15.138 108.709 15.606C108.709 16.146 108.259 16.614 107.395 16.614C106.279 16.614 105.685 15.912 105.613 15.12L103.795 15.624Z" fill="#1D293F"/>
<path d="M48.614 38H47.366V32.059H45.325V31.162C45.897 31.1533 46.378 31.006 46.768 30.72C47.158 30.4253 47.4007 30.044 47.496 29.576H48.614V38ZM57.396 31.747H58.657L60.282 36.453L61.66 31.747H62.947L60.919 38H59.658L57.994 33.242L56.369 38H55.082L53.028 31.747H54.367L55.771 36.453L57.396 31.747ZM64.8476 34.23H68.2666C68.2493 33.762 68.0933 33.3807 67.7986 33.086C67.504 32.7827 67.088 32.631 66.5506 32.631C66.0653 32.631 65.6666 32.7913 65.3546 33.112C65.0426 33.424 64.8736 33.7967 64.8476 34.23ZM68.4486 35.855L69.5016 36.219C69.3196 36.7997 68.9816 37.2763 68.4876 37.649C67.9936 38.013 67.3956 38.195 66.6936 38.195C65.8183 38.195 65.073 37.896 64.4576 37.298C63.851 36.6913 63.5476 35.8767 63.5476 34.854C63.5476 33.9007 63.8423 33.112 64.4316 32.488C65.021 31.864 65.723 31.552 66.5376 31.552C67.4823 31.552 68.219 31.851 68.7476 32.449C69.2763 33.0383 69.5406 33.8313 69.5406 34.828C69.5406 34.984 69.532 35.114 69.5146 35.218H64.8086C64.8173 35.7727 64.9993 36.2277 65.3546 36.583C65.7186 36.9383 66.165 37.116 66.6936 37.116C67.5863 37.116 68.1713 36.6957 68.4486 35.855ZM71.8935 34.23H75.3125C75.2952 33.762 75.1392 33.3807 74.8445 33.086C74.5499 32.7827 74.1339 32.631 73.5965 32.631C73.1112 32.631 72.7125 32.7913 72.4005 33.112C72.0885 33.424 71.9195 33.7967 71.8935 34.23ZM75.4945 35.855L76.5475 36.219C76.3655 36.7997 76.0275 37.2763 75.5335 37.649C75.0395 38.013 74.4415 38.195 73.7395 38.195C72.8642 38.195 72.1189 37.896 71.5035 37.298C70.8969 36.6913 70.5935 35.8767 70.5935 34.854C70.5935 33.9007 70.8882 33.112 71.4775 32.488C72.0669 31.864 72.7689 31.552 73.5835 31.552C74.5282 31.552 75.2649 31.851 75.7935 32.449C76.3222 33.0383 76.5865 33.8313 76.5865 34.828C76.5865 34.984 76.5779 35.114 76.5605 35.218H71.8545C71.8632 35.7727 72.0452 36.2277 72.4005 36.583C72.7645 36.9383 73.2109 37.116 73.7395 37.116C74.6322 37.116 75.2172 36.6957 75.4945 35.855ZM83.7494 31.747L81.0844 34.386L83.8014 38H82.2674L80.2264 35.244L79.3554 36.115V38H78.1464V28.588H79.3554V34.516L82.0594 31.747H83.7494ZM87.8365 36.323C87.8365 35.7857 88.0099 35.3567 88.3565 35.036C88.7032 34.7067 89.1625 34.503 89.7345 34.425L91.4245 34.178C91.7452 34.1347 91.9055 33.9787 91.9055 33.71C91.9055 33.3807 91.7929 33.112 91.5675 32.904C91.3422 32.696 91.0042 32.592 90.5535 32.592C90.1375 32.592 89.8082 32.709 89.5655 32.943C89.3229 33.1683 89.1799 33.4717 89.1365 33.853L87.9665 33.58C88.0272 32.982 88.3002 32.4967 88.7855 32.124C89.2709 31.7427 89.8515 31.552 90.5275 31.552C91.4115 31.552 92.0659 31.7687 92.4905 32.202C92.9152 32.6267 93.1275 33.1727 93.1275 33.84V36.973C93.1275 37.3457 93.1535 37.688 93.2055 38H92.0095C91.9662 37.74 91.9445 37.4583 91.9445 37.155C91.7712 37.4323 91.5155 37.675 91.1775 37.883C90.8482 38.091 90.4322 38.195 89.9295 38.195C89.3142 38.195 88.8115 38.013 88.4215 37.649C88.0315 37.2763 87.8365 36.8343 87.8365 36.323ZM90.0985 37.168C90.6445 37.168 91.0822 37.0207 91.4115 36.726C91.7409 36.4313 91.9055 35.9633 91.9055 35.322V35.036L89.9945 35.322C89.7172 35.3653 89.4962 35.465 89.3315 35.621C89.1669 35.777 89.0845 35.9893 89.0845 36.258C89.0845 36.5007 89.1755 36.713 89.3575 36.895C89.5482 37.077 89.7952 37.168 90.0985 37.168ZM94.5762 38.338L95.7592 38.065C95.8025 38.507 95.9802 38.871 96.2922 39.157C96.6042 39.4517 96.9942 39.599 97.4622 39.599C98.7362 39.599 99.3732 38.923 99.3732 37.571V36.674C99.2172 36.9773 98.9702 37.2243 98.6322 37.415C98.3029 37.6057 97.9129 37.701 97.4622 37.701C96.6302 37.701 95.9412 37.4193 95.3952 36.856C94.8579 36.284 94.5892 35.556 94.5892 34.672C94.5892 33.814 94.8579 33.0947 95.3952 32.514C95.9325 31.9247 96.6215 31.63 97.4622 31.63C98.4155 31.63 99.0569 31.9593 99.3862 32.618V31.747H100.595V37.532C100.595 37.948 100.539 38.3337 100.426 38.689C100.322 39.053 100.153 39.3867 99.9192 39.69C99.6852 39.9933 99.3559 40.2317 98.9312 40.405C98.5152 40.5783 98.0255 40.665 97.4622 40.665C96.6909 40.665 96.0365 40.444 95.4992 40.002C94.9619 39.5687 94.6542 39.014 94.5762 38.338ZM97.6442 36.674C98.1729 36.674 98.6019 36.492 98.9312 36.128C99.2605 35.7553 99.4252 35.27 99.4252 34.672C99.4252 34.074 99.2605 33.593 98.9312 33.229C98.6019 32.8563 98.1729 32.67 97.6442 32.67C97.1069 32.67 96.6692 32.852 96.3312 33.216C96.0019 33.58 95.8372 34.0653 95.8372 34.672C95.8372 35.2873 95.9975 35.777 96.3182 36.141C96.6475 36.4963 97.0895 36.674 97.6442 36.674ZM103.834 36.518C104.215 36.908 104.679 37.103 105.225 37.103C105.771 37.103 106.23 36.908 106.603 36.518C106.984 36.1193 107.175 35.569 107.175 34.867C107.175 34.1737 106.984 33.632 106.603 33.242C106.23 32.8433 105.771 32.644 105.225 32.644C104.679 32.644 104.215 32.8433 103.834 33.242C103.461 33.632 103.275 34.1737 103.275 34.867C103.275 35.569 103.461 36.1193 103.834 36.518ZM102.924 32.501C103.531 31.8683 104.298 31.552 105.225 31.552C106.152 31.552 106.915 31.8683 107.513 32.501C108.12 33.125 108.423 33.9137 108.423 34.867C108.423 35.829 108.124 36.6263 107.526 37.259C106.928 37.883 106.161 38.195 105.225 38.195C104.289 38.195 103.522 37.883 102.924 37.259C102.326 36.6263 102.027 35.829 102.027 34.867C102.027 33.9137 102.326 33.125 102.924 32.501Z" fill="#8C97AC"/>
</g>
<defs>
<clipPath id="clip0_15_118">
<rect width="153" height="41" fill="white"/>
</clipPath>
</defs>
</svg>
