<svg width="14" height="17" viewBox="0 0 14 17" fill="none" xmlns="http://www.w3.org/2000/svg">
<path d="M1.72531 14.8376C1.72531 15.8154 2.51652 16.6154 3.48355 16.6154H10.5165C11.4836 16.6154 12.2748 15.8154 12.2748 14.8376V5.94872C12.2748 4.97094 11.4836 4.17094 10.5165 4.17094H3.48355C2.51652 4.17094 1.72531 4.97094 1.72531 5.94872V14.8376ZM12.2748 1.50428H10.077L9.45278 0.873165C9.29454 0.713165 9.06597 0.615387 8.8374 0.615387H5.16267C4.9341 0.615387 4.70553 0.713165 4.54729 0.873165L3.92311 1.50428H1.72531C1.2418 1.50428 0.846191 1.90428 0.846191 2.39316C0.846191 2.88205 1.2418 3.28205 1.72531 3.28205H12.2748C12.7583 3.28205 13.1539 2.88205 13.1539 2.39316C13.1539 1.90428 12.7583 1.50428 12.2748 1.50428Z" fill="#FF593E"/>
</svg>
