<svg width="47" height="54" viewBox="0 0 47 54" fill="none" xmlns="http://www.w3.org/2000/svg">
<path d="M46.2616 41.1866C44.9008 40.1259 43.2428 39.3621 41.444 38.9919L32.8687 37.2947C31.9693 37.125 31.3202 36.3304 31.3202 35.4047V33.4646C31.8715 32.7009 32.3916 31.6864 32.9352 30.6257C33.3575 29.8041 33.9949 28.566 34.3116 28.2459C36.0478 26.5256 37.7253 24.5931 38.2454 22.1014C38.7303 19.764 38.2532 18.5374 37.694 17.55C37.694 15.0853 37.6158 11.9996 37.0254 9.75471C36.955 6.71529 36.3958 5.00657 34.9881 3.51C33.9949 2.44929 32.5324 2.20243 31.3554 2.00571C30.894 1.92857 30.2566 1.82057 30.022 1.69714C27.9377 0.586286 25.877 0.0424286 23.4174 0C18.2675 0.208286 11.9367 3.44057 9.81728 9.20314C9.16034 10.9581 9.22682 13.8394 9.28156 16.1537L9.23073 17.5461C8.7263 18.5181 8.22968 19.7524 8.71848 22.0976C9.23464 24.5931 10.9122 26.5294 12.6796 28.2729C12.969 28.566 13.622 29.8157 14.0522 30.6411C14.6035 31.698 15.1275 32.7086 15.6789 33.4684V35.4086C15.6789 36.3304 15.0258 37.125 14.1226 37.2986L5.53938 38.9957C3.75236 39.3699 2.09438 40.1259 0.737493 41.1866C0.315177 41.5221 0.0492749 42.012 0.00626125 42.5443C-0.0367524 43.0766 0.143122 43.5973 0.506783 43.9946C6.34882 50.3511 14.7287 54 23.4995 54C32.2704 54 40.6541 50.355 46.4923 43.9946C46.8559 43.5973 47.0397 43.0727 46.9928 42.5404C46.9498 42.0081 46.6839 41.5183 46.2616 41.1866Z" fill="#989FB0"/>
</svg>
