<svg width="12" height="18" viewBox="0 0 12 18" fill="none" xmlns="http://www.w3.org/2000/svg">
<path d="M5.85 0.876236C2.61913 0.876236 0 3.49536 0 6.72624C0 10.0407 3.68049 14.933 5.20316 16.8141C5.53744 17.227 6.16256 17.227 6.49684 16.8141C8.01951 14.933 11.7 10.0407 11.7 6.72624C11.7 3.49536 9.08087 0.876236 5.85 0.876236ZM5.85 8.81552C4.69588 8.81552 3.76071 7.88036 3.76071 6.72624C3.76071 5.57211 4.69588 4.63695 5.85 4.63695C7.00412 4.63695 7.93929 5.57211 7.93929 6.72624C7.93929 7.88036 7.00412 8.81552 5.85 8.81552Z" fill="#95ADBE"/>
</svg>
