<svg width="16" height="18" viewBox="0 0 16 18" fill="none" xmlns="http://www.w3.org/2000/svg">
<path d="M3.96686 0.833328C3.51606 0.833328 3.1502 1.19919 3.1502 1.64999V2.46666H2.33353C1.4352 2.46666 0.700195 3.20166 0.700195 4.1V15.5333C0.700195 16.4317 1.4352 17.1667 2.33353 17.1667H13.7669C14.6652 17.1667 15.4002 16.4317 15.4002 15.5333V4.1C15.4002 3.20166 14.6652 2.46666 13.7669 2.46666H12.9502V1.64999C12.9502 1.19919 12.5843 0.833328 12.1335 0.833328C11.6827 0.833328 11.3169 1.19919 11.3169 1.64999V2.46666H4.78353V1.64999C4.78353 1.19919 4.41766 0.833328 3.96686 0.833328ZM2.33353 6.55H13.7669V15.5333H2.33353V6.55ZM8.86686 9.81666C8.6578 9.81666 8.4487 9.89667 8.28945 10.0559C7.97095 10.3744 7.97095 10.8922 8.28945 11.2107L8.93705 11.8583L8.28945 12.5059C7.97095 12.8244 7.97095 13.3422 8.28945 13.6607C8.60795 13.9801 9.12495 13.9801 9.44427 13.6607L10.0919 13.0131L10.7395 13.6607C11.0588 13.9801 11.5758 13.9801 11.8943 13.6607C12.2128 13.3422 12.2128 12.8244 11.8943 12.5059L11.2467 11.8583L11.8943 11.2107C12.2128 10.8922 12.2128 10.3744 11.8943 10.0559C11.5758 9.73742 11.058 9.73742 10.7395 10.0559L10.0919 10.7035L9.44427 10.0559C9.28502 9.89667 9.07593 9.81666 8.86686 9.81666Z" fill="#95ADBE"/>
</svg>
